<svg width="102" height="43" viewBox="0 0 102 43" fill="none" xmlns="http://www.w3.org/2000/svg">
<g opacity="0.7" clip-path="url(#clip0_84_279)">
<mask id="mask0_84_279" style="mask-type:luminance" maskUnits="userSpaceOnUse" x="-23" y="-51" width="148" height="142">
<path d="M124.109 -50.4937H-22.8438V90.1749H124.109V-50.4937Z" fill="white"/>
</mask>
<g mask="url(#mask0_84_279)">
<g clip-path="url(#clip1_84_279)">
<path d="M-10.4788 33.6638C-11.273 33.2136 -11.9313 32.5618 -12.386 31.7757C-12.8487 30.9651 -13.0918 30.0498 -13.0918 29.1188C-13.0918 28.1877 -12.8487 27.2725 -12.386 26.4619C-11.9279 25.6735 -11.2665 25.0197 -10.4694 24.5675C-9.67233 24.1152 -8.76819 23.8807 -7.8495 23.8879C-7.13101 23.8828 -6.41839 24.0162 -5.75133 24.2805C-5.13175 24.5177 -4.57727 24.896 -4.13274 25.3847L-4.99571 26.2397C-5.32343 25.8422 -5.74603 25.5317 -6.22534 25.3364C-6.73514 25.124 -7.28317 25.0162 -7.83626 25.0196C-8.5361 25.0154 -9.22502 25.1914 -9.83545 25.5303C-10.4518 25.87 -10.9645 26.3677 -11.3195 26.9712C-11.6858 27.6289 -11.8779 28.3677 -11.8779 29.1188C-11.8779 29.8698 -11.6858 30.6087 -11.3195 31.2664C-10.9632 31.8713 -10.4479 32.3693 -9.82848 32.7073C-9.26462 33.0054 -8.64156 33.1775 -8.00323 33.2114C-7.3649 33.2452 -6.72683 33.1401 -6.13402 32.9033C-5.69066 32.7026 -5.2901 32.4198 -4.95388 32.0703C-4.69933 31.7942 -4.49804 31.4742 -4.35998 31.1263C-4.20445 30.7345 -4.10928 30.3218 -4.07767 29.902H-7.82232V28.7979H-2.96097C-2.91599 29.0381 -2.89266 29.2817 -2.89126 29.5259C-2.89083 30.136 -2.9909 30.742 -3.18751 31.3202C-3.38143 31.8954 -3.70516 32.4193 -4.13413 32.8522C-4.60886 33.3511 -5.18654 33.743 -5.82788 34.0011C-6.46922 34.2593 -7.1592 34.3777 -7.8509 34.3483C-8.77311 34.3564 -9.68002 34.1201 -10.4788 33.6638ZM0.0831232 33.846C-0.476909 33.5173 -0.935039 33.0428 -1.2413 32.474C-1.55234 31.882 -1.71473 31.2246 -1.71473 30.5573C-1.71473 29.89 -1.55234 29.2325 -1.2413 28.6406C-0.93405 28.0729 -0.476119 27.599 0.0831232 27.27C0.663672 26.9399 1.32149 26.7661 1.991 26.7661C2.66051 26.7661 3.31832 26.9399 3.89887 27.27C4.45834 27.5987 4.91633 28.0727 5.2233 28.6406C5.53433 29.2325 5.69672 29.89 5.69672 30.5573C5.69672 31.2246 5.53433 31.882 5.2233 32.474C4.9173 33.043 4.45911 33.5176 3.89887 33.846C3.31821 34.1758 2.66044 34.3493 1.991 34.3493C1.32156 34.3493 0.663786 34.1758 0.0831232 33.846ZM3.2276 32.944C3.61533 32.7181 3.9329 32.391 4.14563 31.9986C4.37365 31.5519 4.49245 31.0584 4.49245 30.558C4.49245 30.0575 4.37365 29.5641 4.14563 29.1174C3.93282 28.7254 3.61523 28.3988 3.2276 28.1734C2.85282 27.9556 2.42556 27.8421 1.991 27.8449C1.54699 27.843 1.11078 27.9604 0.728793 28.1845C0.346805 28.4085 0.0333281 28.731 -0.178277 29.1174C-0.406294 29.5641 -0.525092 30.0575 -0.525092 30.558C-0.525092 31.0584 -0.406294 31.5519 -0.178277 31.9986C-0.0203915 32.285 0.193809 32.5373 0.451701 32.7406C0.709595 32.9438 1.00597 33.0939 1.32336 33.182C1.64075 33.2701 1.97274 33.2945 2.29978 33.2536C2.62682 33.2127 2.94228 33.1074 3.2276 32.944ZM8.49115 33.846C7.93273 33.5163 7.47633 33.0413 7.1716 32.4727C6.86057 31.8807 6.69818 31.2232 6.69818 30.5559C6.69818 29.8886 6.86057 29.2312 7.1716 28.6392C7.47693 28.0726 7.93239 27.599 8.48906 27.2693C9.06961 26.9392 9.72742 26.7655 10.3969 26.7655C11.0664 26.7655 11.7243 26.9392 12.3048 27.2693C12.8642 27.5981 13.3222 28.0721 13.6292 28.6399C13.9403 29.2319 14.1027 29.8893 14.1027 30.5566C14.1027 31.2239 13.9403 31.8814 13.6292 32.4733C13.323 33.0421 12.8648 33.5166 12.3048 33.8453C11.7241 34.1751 11.0664 34.3486 10.3969 34.3486C9.7275 34.3486 9.06972 34.1751 8.48906 33.8453M11.6335 32.9433C12.0215 32.7172 12.3394 32.3902 12.553 31.9979C12.7803 31.551 12.8988 31.0576 12.8988 30.5573C12.8988 30.0569 12.7803 29.5636 12.553 29.1167C12.3394 28.7248 12.0214 28.3983 11.6335 28.1727C11.2587 27.9549 10.8315 27.8414 10.3969 27.8442C9.95292 27.8423 9.51671 27.9597 9.13473 28.1838C8.75274 28.4079 8.43926 28.7303 8.22766 29.1167C8.00028 29.5636 7.88185 30.0569 7.88185 30.5573C7.88185 31.0576 8.00028 31.551 8.22766 31.9979C8.43896 32.3847 8.75233 32.7074 9.13436 32.9318C9.51639 33.1561 9.95275 33.2737 10.3969 33.2718C10.8314 33.2741 11.2586 33.1607 11.6335 32.9433ZM16.5513 36.7837C16.0404 36.4412 15.6532 35.9464 15.4458 35.3711L16.5339 34.9101C16.6908 35.3163 16.9696 35.6653 17.3328 35.91C17.7226 36.1726 18.1858 36.3075 18.6572 36.2958C18.9729 36.315 19.2892 36.2701 19.5867 36.1639C19.8842 36.0576 20.1566 35.8924 20.3873 35.6782C20.6031 35.4398 20.7687 35.1612 20.8742 34.8587C20.9798 34.5561 21.0233 34.2357 21.0021 33.9163V33.12H20.9457C20.696 33.4957 20.353 33.8015 19.9495 34.0081C19.4982 34.2415 18.9948 34.3589 18.4857 34.3497C17.8829 34.3543 17.2916 34.1866 16.7828 33.8667C16.2598 33.5363 15.8373 33.0717 15.5601 32.5223C15.2622 31.9102 15.1074 31.2395 15.1074 30.5601C15.1074 29.8806 15.2622 29.2099 15.5601 28.5978C15.8363 28.0459 16.2596 27.5791 16.7842 27.2479C17.2929 26.9277 17.8843 26.7599 18.4871 26.7649C18.9965 26.7567 19.4999 26.8754 19.9509 27.1099C20.3577 27.3181 20.7014 27.6293 20.947 28.0119H21.0035V26.9905H22.1481V33.846C22.1815 34.3252 22.1133 34.8061 21.9479 35.2577C21.7825 35.7093 21.5235 36.1217 21.1875 36.4683C20.5459 36.9924 19.7546 37.3046 18.9247 37.3612C18.0948 37.4177 17.2679 37.2158 16.5597 36.7837M19.8359 32.9454C20.1999 32.7154 20.4929 32.3907 20.6829 32.0068C20.9051 31.5561 21.0144 31.059 21.0014 30.5576C21.0153 30.0515 20.9061 29.5495 20.6829 29.0939C20.4939 28.7116 20.2005 28.3893 19.8359 28.1637C19.477 27.953 19.0671 27.8424 18.6498 27.8438C18.2326 27.8451 17.8234 27.9583 17.4659 28.1713C17.0983 28.3991 16.802 28.7235 16.6099 29.1084C16.3886 29.5594 16.2798 30.0564 16.2927 30.5576C16.2804 31.0615 16.3891 31.561 16.6099 32.0151C16.7935 32.3961 17.0835 32.717 17.4456 32.9398C17.8077 33.1627 18.2267 33.2781 18.653 33.2725C19.0698 33.277 19.4793 33.1635 19.8331 32.9454M23.9103 24.1087H25.1113V34.1254H23.9103V24.1087ZM28.2488 33.8591C27.7044 33.5354 27.2616 33.0683 26.9697 32.5099C26.6573 31.9112 26.4995 31.2452 26.5103 30.5714C26.5031 29.9125 26.6505 29.261 26.9411 28.6682C27.2147 28.1057 27.6372 27.6273 28.1638 27.2838C28.7101 26.933 29.3502 26.7525 30.0013 26.7656C30.646 26.7499 31.2823 26.9127 31.8387 27.2355C32.3537 27.5444 32.7682 27.9933 33.0328 28.5288C33.3198 29.1175 33.463 29.7647 33.451 30.4182C33.4533 30.5406 33.439 30.6627 33.4085 30.7812H27.7114C27.7224 31.2642 27.859 31.7363 28.108 32.1518C28.3242 32.5075 28.6344 32.7982 29.0051 32.9923C29.3558 33.1754 29.7463 33.2713 30.1428 33.2718C30.5849 33.2781 31.0198 33.1606 31.3973 32.9328C31.7749 32.7049 32.0796 32.376 32.2765 31.9841L33.2942 32.4733C33.0012 33.0325 32.5649 33.5056 32.029 33.8453C31.4544 34.1725 30.8036 34.3459 30.1408 34.3483C29.4779 34.3507 28.8258 34.1821 28.2488 33.8591ZM32.1775 29.802C32.1549 29.4889 32.0681 29.1837 31.9224 28.9049C31.7597 28.5929 31.5132 28.3314 31.21 28.1492C30.8403 27.933 30.4157 27.8264 29.9866 27.8421C29.4561 27.8298 28.9416 28.0229 28.5527 28.3804C28.1515 28.761 27.883 29.2582 27.786 29.7999L32.1775 29.802ZM37.8007 24.1087H41.2066C41.753 24.1045 42.292 24.2339 42.7757 24.4855C43.2477 24.7305 43.6452 25.0957 43.9273 25.5434C44.2091 26.0056 44.3581 26.5352 44.3581 27.0751C44.3581 27.6149 44.2091 28.1446 43.9273 28.6067C43.645 29.0537 43.2475 29.4181 42.7757 29.6626C42.2924 29.9152 41.7532 30.045 41.2066 30.0401H38.9878V34.1261H37.8028L37.8007 24.1087ZM41.2352 28.9069C41.5861 28.9141 41.9317 28.8216 42.2313 28.6406C42.5102 28.4725 42.7412 28.2369 42.9026 27.956C43.0598 27.6885 43.1426 27.3845 43.1426 27.0751C43.1426 26.7656 43.0598 26.4616 42.9026 26.1942C42.7415 25.9116 42.5105 25.6741 42.2313 25.5041C41.9312 25.3243 41.5859 25.2324 41.2352 25.2391H38.9878V28.9042L41.2352 28.9069ZM46.7755 34.0412C46.3812 33.8541 46.0481 33.5609 45.8142 33.1952C45.586 32.8273 45.4685 32.4026 45.4755 31.971C45.4609 31.6285 45.5319 31.2878 45.6822 30.979C45.8325 30.6703 46.0574 30.403 46.337 30.2009C46.9726 29.7583 47.7375 29.5348 48.514 29.5646C48.9208 29.5616 49.3265 29.6079 49.722 29.7026C50.0214 29.768 50.3094 29.8768 50.5766 30.0256V29.5915C50.5857 29.3499 50.5396 29.1093 50.4417 28.8878C50.3438 28.6663 50.1967 28.4695 50.0113 28.3121C49.6124 27.9817 49.104 27.8096 48.5844 27.829C48.1969 27.8252 47.8143 27.9142 47.4691 28.0885C47.1402 28.2521 46.8622 28.5008 46.6646 28.8082L45.7585 28.1368C46.0475 27.7024 46.4507 27.3543 46.9247 27.1299C47.4372 26.8828 48.0011 26.7578 48.5711 26.7649C49.4117 26.7172 50.2387 26.9904 50.8819 27.5281C51.165 27.7939 51.3868 28.1171 51.5321 28.4756C51.6773 28.8341 51.7425 29.2195 51.7233 29.6053V34.1248H50.578V33.1034H50.5222C50.2916 33.4705 49.9707 33.7737 49.5895 33.9847C49.1649 34.2293 48.681 34.3548 48.1898 34.3477C47.7012 34.3566 47.2174 34.2514 46.7776 34.0406M49.4341 32.9916C49.7795 32.7904 50.0673 32.5054 50.2706 32.1635C50.4766 31.8209 50.5839 31.429 50.5808 31.0304C50.3228 30.8667 50.0406 30.744 49.7443 30.6667C49.4039 30.5729 49.052 30.5264 48.6987 30.5287C48.1696 30.4905 47.6434 30.6338 47.2084 30.9344C47.0479 31.0584 46.9189 31.2178 46.8317 31.4C46.7446 31.5821 46.7017 31.7819 46.7065 31.9834C46.7013 32.1659 46.7396 32.3471 46.8182 32.5122C46.8967 32.6774 47.0135 32.822 47.1589 32.9343C47.4853 33.1852 47.8906 33.3139 48.3035 33.298C48.7017 33.3003 49.0928 33.194 49.4341 32.9909M53.1927 27.1003H54.338V28.2355H54.3944C54.5598 27.821 54.864 27.4753 55.256 27.2562C55.6593 27.0234 56.1185 26.9023 56.5853 26.9057C56.7603 26.9033 56.9351 26.9174 57.1074 26.9477V28.1651C56.8938 28.1234 56.6761 28.1052 56.4584 28.1106C56.1811 28.1004 55.9047 28.1487 55.6476 28.2523C55.3906 28.3559 55.1587 28.5125 54.9674 28.7116C54.576 29.139 54.3704 29.7018 54.3951 30.2781V34.2379H53.1934L53.1927 27.1003ZM60.5056 34.2082C60.2726 34.1231 60.0592 33.9924 59.8783 33.8239C59.693 33.6479 59.5484 33.4344 59.4544 33.198C59.3536 32.9193 59.3063 32.6243 59.315 32.3284V28.0705H58.0603V26.9898H59.315V24.9754H60.5161V26.9898H62.2692V28.0678H60.5161V32.042C60.4911 32.3543 60.5709 32.6661 60.7433 32.9288C60.8399 33.0365 60.9601 33.1209 61.0947 33.1757C61.2292 33.2305 61.3746 33.2541 61.5198 33.2449C61.8015 33.2424 62.0765 33.1595 62.3117 33.0061V34.1675C62.1737 34.2305 62.0286 34.2768 61.8795 34.3056C61.6954 34.3366 61.5087 34.3504 61.3219 34.347C61.0442 34.3496 60.7684 34.3014 60.5084 34.2048M63.6382 26.9885H64.7849V28.0381H64.84C65.0657 27.6566 65.3932 27.3441 65.7866 27.1348C66.207 26.8914 66.6854 26.7634 67.1724 26.7642C67.5381 26.7399 67.9049 26.7942 68.2475 26.9234C68.59 27.0527 68.9003 27.2538 69.1569 27.5129C69.6387 28.0805 69.8842 28.8084 69.8435 29.5487V34.1234H68.6418V29.7302C68.6658 29.4703 68.6355 29.2082 68.5529 28.9603C68.4703 28.7125 68.3371 28.4841 68.1615 28.2893C67.7988 27.976 67.3268 27.8155 66.8461 27.8421C66.4745 27.8374 66.1111 27.9498 65.8082 28.163C65.5005 28.3793 65.2546 28.6708 65.0944 29.0091C64.9262 29.3513 64.8389 29.7271 64.8393 30.1077V34.1234H63.6375L63.6382 26.9885ZM72.9232 33.8577C72.379 33.5337 71.9362 33.0667 71.6441 32.5085C71.3317 31.9098 71.1739 31.2439 71.1847 30.5701C71.1779 29.9111 71.3258 29.2595 71.6169 28.6668C71.8895 28.1042 72.3117 27.6256 72.8381 27.2824C73.3844 26.9315 74.0245 26.751 74.6756 26.7642C75.3203 26.7486 75.9566 26.9114 76.5131 27.2341C77.028 27.5433 77.4427 27.9921 77.7078 28.5274C77.9943 29.1162 78.1376 29.7633 78.1261 30.4169C78.1279 30.5392 78.1136 30.6612 78.0836 30.7799H72.3878C72.3984 31.2627 72.5345 31.7348 72.7831 32.1504C72.9997 32.5063 73.3104 32.7969 73.6816 32.9909C74.0318 33.174 74.4218 33.2699 74.8178 33.2704C75.2599 33.2768 75.6948 33.1592 76.0724 32.9314C76.4499 32.7035 76.7547 32.3747 76.9515 31.9827L77.9692 32.472C77.6762 33.0311 77.2399 33.5042 76.7041 33.8439C76.1295 34.1711 75.4787 34.3445 74.8158 34.3469C74.1529 34.3493 73.5002 34.1807 72.9232 33.8577ZM76.8525 29.8006C76.8299 29.4877 76.7436 29.1825 76.5988 28.9035C76.4356 28.5914 76.1886 28.3299 75.885 28.1478C75.5156 27.9315 75.0912 27.8249 74.6624 27.8407C74.1317 27.8278 73.6171 28.021 73.2285 28.379C72.8254 28.7588 72.5553 29.2562 72.4575 29.7985L76.8525 29.8006ZM79.5091 26.9885H80.6544V28.1361H80.7108C80.8652 27.728 81.1537 27.3832 81.5299 27.1568C81.9055 26.9046 82.3481 26.7679 82.802 26.7642C83.0923 26.7569 83.381 26.8095 83.6497 26.9188V28.1941C83.3328 28.0414 82.9842 27.9646 82.6319 27.9698C82.2889 27.9686 81.9536 28.0714 81.6714 28.2644C81.3755 28.4663 81.1357 28.7388 80.9743 29.0567C80.8005 29.3878 80.711 29.7559 80.7136 30.1291V34.1261H79.5119L79.5091 26.9885Z" fill="white"/>
<path d="M-10.4788 33.6638C-11.273 33.2136 -11.9313 32.5618 -12.386 31.7757C-12.8487 30.9651 -13.0918 30.0498 -13.0918 29.1188C-13.0918 28.1877 -12.8487 27.2725 -12.386 26.4619C-11.9279 25.6735 -11.2665 25.0197 -10.4694 24.5675C-9.67233 24.1152 -8.76819 23.8807 -7.8495 23.8879C-7.13101 23.8828 -6.41839 24.0162 -5.75133 24.2805C-5.13175 24.5177 -4.57727 24.896 -4.13274 25.3847L-4.99571 26.2397C-5.32343 25.8422 -5.74603 25.5317 -6.22534 25.3364C-6.73514 25.124 -7.28317 25.0162 -7.83626 25.0196C-8.5361 25.0154 -9.22502 25.1914 -9.83545 25.5303C-10.4518 25.87 -10.9645 26.3677 -11.3195 26.9712C-11.6858 27.6289 -11.8779 28.3677 -11.8779 29.1188C-11.8779 29.8698 -11.6858 30.6087 -11.3195 31.2664C-10.9632 31.8713 -10.4479 32.3693 -9.82848 32.7073C-9.26462 33.0054 -8.64156 33.1775 -8.00323 33.2114C-7.3649 33.2452 -6.72683 33.1401 -6.13402 32.9033C-5.69066 32.7026 -5.2901 32.4198 -4.95388 32.0703C-4.69933 31.7942 -4.49804 31.4742 -4.35998 31.1263C-4.20445 30.7345 -4.10928 30.3218 -4.07767 29.902H-7.82232V28.7979H-2.96097C-2.91599 29.0381 -2.89266 29.2817 -2.89126 29.5259C-2.89083 30.136 -2.9909 30.742 -3.18751 31.3202C-3.38143 31.8954 -3.70516 32.4193 -4.13413 32.8522C-4.60886 33.3511 -5.18654 33.743 -5.82788 34.0011C-6.46922 34.2593 -7.1592 34.3777 -7.8509 34.3483C-8.77288 34.3563 -9.68022 34.12 -10.4788 33.6638ZM0.0838202 33.846C-0.476212 33.5173 -0.934342 33.0428 -1.24061 32.474C-1.55164 31.882 -1.71403 31.2246 -1.71403 30.5573C-1.71403 29.89 -1.55164 29.2325 -1.24061 28.6406C-0.933353 28.0729 -0.475423 27.599 0.0838202 27.27C0.664369 26.9399 1.32219 26.7661 1.9917 26.7661C2.6612 26.7661 3.31902 26.9399 3.89957 27.27C4.45903 27.5987 4.91703 28.0727 5.224 28.6406C5.53503 29.2325 5.69742 29.89 5.69742 30.5573C5.69742 31.2246 5.53503 31.882 5.224 32.474C4.91799 33.043 4.4598 33.5176 3.89957 33.846C3.31891 34.1758 2.66114 34.3493 1.9917 34.3493C1.32226 34.3493 0.664483 34.1758 0.0838202 33.846ZM3.22829 32.944C3.61603 32.7181 3.9336 32.391 4.14633 31.9986C4.37435 31.5519 4.49315 31.0584 4.49315 30.558C4.49315 30.0575 4.37435 29.5641 4.14633 29.1174C3.93351 28.7254 3.61593 28.3988 3.22829 28.1734C2.85351 27.9556 2.42626 27.8421 1.9917 27.8449C1.54769 27.843 1.11148 27.9604 0.72949 28.1845C0.347502 28.4085 0.0340247 28.731 -0.17758 29.1174C-0.405598 29.5641 -0.524396 30.0575 -0.524396 30.558C-0.524396 31.0584 -0.405598 31.5519 -0.17758 31.9986C-0.0196949 32.285 0.194505 32.5373 0.452398 32.7406C0.710292 32.9438 1.00666 33.0939 1.32406 33.182C1.64145 33.2701 1.97344 33.2945 2.30048 33.2536C2.62752 33.2127 2.94298 33.1074 3.22829 32.944ZM8.49185 33.846C7.93317 33.5164 7.47652 33.0414 7.1716 32.4727C6.86057 31.8807 6.69818 31.2232 6.69818 30.5559C6.69818 29.8886 6.86057 29.2312 7.1716 28.6392C7.47693 28.0726 7.93239 27.599 8.48906 27.2693C9.06961 26.9392 9.72742 26.7655 10.3969 26.7655C11.0664 26.7655 11.7243 26.9392 12.3048 27.2693C12.8642 27.5981 13.3222 28.0721 13.6292 28.6399C13.9403 29.2319 14.1027 29.8893 14.1027 30.5566C14.1027 31.2239 13.9403 31.8814 13.6292 32.4733C13.323 33.0421 12.8648 33.5166 12.3048 33.8453C11.7241 34.1751 11.0664 34.3486 10.3969 34.3486C9.72749 34.3486 9.06972 34.1751 8.48906 33.8453L8.49185 33.846ZM11.6363 32.944C12.0243 32.7179 12.3422 32.3909 12.5557 31.9986C12.7831 31.5517 12.9016 31.0583 12.9016 30.558C12.9016 30.0576 12.7831 29.5643 12.5557 29.1174C12.3421 28.7255 12.0242 28.399 11.6363 28.1734C11.2615 27.9556 10.8343 27.8421 10.3997 27.8449C9.95571 27.843 9.5195 27.9604 9.13752 28.1845C8.75553 28.4085 8.44205 28.731 8.23045 29.1174C8.00307 29.5643 7.88464 30.0576 7.88464 30.558C7.88464 31.0583 8.00307 31.5517 8.23045 31.9986C8.44175 32.3854 8.75512 32.7081 9.13715 32.9325C9.51917 33.1568 9.95554 33.2743 10.3997 33.2725C10.8345 33.2747 11.2619 33.161 11.637 32.9433L11.6363 32.944ZM16.5541 36.7844C16.0421 36.4422 15.6538 35.947 15.4458 35.3711L16.5339 34.9101C16.6908 35.3163 16.9696 35.6653 17.3328 35.91C17.7226 36.1726 18.1858 36.3075 18.6572 36.2958C18.9729 36.315 19.2892 36.2701 19.5867 36.1639C19.8842 36.0576 20.1566 35.8924 20.3873 35.6782C20.6031 35.4398 20.7687 35.1612 20.8742 34.8587C20.9798 34.5561 21.0233 34.2357 21.0021 33.9163V33.12H20.9457C20.696 33.4957 20.353 33.8015 19.9495 34.0081C19.4982 34.2415 18.9948 34.3589 18.4857 34.3497C17.8829 34.3543 17.2916 34.1866 16.7828 33.8667C16.2598 33.5363 15.8373 33.0717 15.5601 32.5223C15.2622 31.9102 15.1074 31.2395 15.1074 30.5601C15.1074 29.8806 15.2622 29.2099 15.5601 28.5978C15.8363 28.0459 16.2596 27.5791 16.7842 27.2479C17.2929 26.9277 17.8843 26.7599 18.4871 26.7649C18.9965 26.7567 19.4999 26.8754 19.9509 27.1099C20.3577 27.3181 20.7014 27.6293 20.947 28.0119H21.0035V26.9905H22.1481V33.846C22.1815 34.3252 22.1133 34.8061 21.9479 35.2577C21.7825 35.7093 21.5235 36.1217 21.1875 36.4683C20.5459 36.9924 19.7546 37.3046 18.9247 37.3612C18.0948 37.4177 17.2679 37.2158 16.5597 36.7837L16.5541 36.7844ZM19.8303 32.9461C20.1943 32.7161 20.4873 32.3914 20.6773 32.0075C20.8996 31.5568 21.0088 31.0597 20.9958 30.5583C21.0098 30.0522 20.9005 29.5502 20.6773 29.0946C20.4883 28.7123 20.1949 28.39 19.8303 28.1644C19.4714 27.9537 19.0616 27.8431 18.6443 27.8445C18.227 27.8458 17.8179 27.959 17.4603 28.172C17.0928 28.3998 16.7964 28.7242 16.6043 29.1091C16.383 29.5601 16.2742 30.0571 16.2872 30.5583C16.2748 31.0622 16.3836 31.5617 16.6043 32.0158C16.7879 32.3968 17.0779 32.7177 17.44 32.9405C17.8021 33.1634 18.2211 33.2788 18.6474 33.2732C19.0664 33.2787 19.4783 33.1649 19.8338 32.9454L19.8303 32.9461ZM23.9103 24.1087H25.1113V34.1254H23.9103V24.1087ZM28.2488 33.8591C27.7044 33.5354 27.2616 33.0683 26.9697 32.5099C26.6573 31.9112 26.4995 31.2452 26.5103 30.5714C26.5031 29.9125 26.6505 29.261 26.9411 28.6682C27.2147 28.1057 27.6372 27.6273 28.1638 27.2838C28.7101 26.933 29.3502 26.7525 30.0013 26.7656C30.646 26.7499 31.2823 26.9127 31.8387 27.2355C32.3537 27.5444 32.7682 27.9933 33.0328 28.5288C33.3198 29.1175 33.463 29.7647 33.451 30.4182C33.4533 30.5406 33.439 30.6627 33.4085 30.7812H27.7114C27.7224 31.2642 27.859 31.7363 28.108 32.1518C28.3242 32.5075 28.6344 32.7982 29.0051 32.9923C29.3558 33.1754 29.7463 33.2713 30.1428 33.2718C30.5849 33.2781 31.0198 33.1606 31.3973 32.9328C31.7749 32.7049 32.0796 32.376 32.2765 31.9841L33.2942 32.4733C33.0012 33.0325 32.5649 33.5056 32.029 33.8453C31.4544 34.1725 30.8036 34.3459 30.1408 34.3483C29.4779 34.3507 28.8258 34.1821 28.2488 33.8591ZM32.1775 29.802C32.1549 29.4889 32.0681 29.1837 31.9224 28.9049C31.7597 28.5929 31.5132 28.3314 31.21 28.1492C30.8403 27.933 30.4157 27.8264 29.9866 27.8421C29.4561 27.8298 28.9416 28.0229 28.5527 28.3804C28.1515 28.761 27.883 29.2582 27.786 29.7999L32.1775 29.802ZM37.8007 24.1087H41.2066C41.753 24.1045 42.292 24.2339 42.7757 24.4855C43.2477 24.7305 43.6452 25.0957 43.9273 25.5434C44.2091 26.0056 44.3581 26.5352 44.3581 27.0751C44.3581 27.6149 44.2091 28.1446 43.9273 28.6067C43.645 29.0537 43.2475 29.4181 42.7757 29.6626C42.2924 29.9152 41.7532 30.045 41.2066 30.0401H38.9878V34.1261H37.8028L37.8007 24.1087ZM41.2352 28.9069C41.5861 28.9141 41.9317 28.8216 42.2313 28.6406C42.5102 28.4725 42.7412 28.2369 42.9026 27.956C43.0598 27.6885 43.1426 27.3845 43.1426 27.0751C43.1426 26.7656 43.0598 26.4616 42.9026 26.1942C42.7415 25.9116 42.5105 25.6741 42.2313 25.5041C41.9312 25.3243 41.5859 25.2324 41.2352 25.2391H38.9878V28.9042L41.2352 28.9069ZM46.7755 34.0412C46.3812 33.8541 46.0481 33.5609 45.8142 33.1952C45.586 32.8273 45.4685 32.4026 45.4755 31.971C45.4609 31.6285 45.5319 31.2878 45.6822 30.979C45.8325 30.6703 46.0574 30.403 46.337 30.2009C46.9726 29.7583 47.7375 29.5348 48.514 29.5646C48.9208 29.5616 49.3265 29.6079 49.722 29.7026C50.0214 29.768 50.3094 29.8768 50.5766 30.0256V29.5915C50.5857 29.3499 50.5396 29.1093 50.4417 28.8878C50.3438 28.6663 50.1967 28.4695 50.0113 28.3121C49.6124 27.9817 49.104 27.8096 48.5844 27.829C48.1969 27.8252 47.8143 27.9142 47.4691 28.0885C47.1402 28.2521 46.8622 28.5008 46.6646 28.8082L45.7585 28.1368C46.0475 27.7024 46.4507 27.3543 46.9247 27.1299C47.4372 26.8828 48.0011 26.7578 48.5711 26.7649C49.4117 26.7172 50.2387 26.9904 50.8819 27.5281C51.165 27.7939 51.3868 28.1171 51.532 28.4756C51.6773 28.8341 51.7425 29.2195 51.7233 29.6053V34.1248H50.578V33.1034H50.5222C50.2916 33.4705 49.9707 33.7737 49.5895 33.9847C49.1649 34.2293 48.681 34.3548 48.1898 34.3477C47.7004 34.3573 47.2162 34.2523 46.7755 34.0412ZM49.432 32.9923C49.7774 32.7911 50.0653 32.5061 50.2685 32.1642C50.4745 31.8216 50.5818 31.4297 50.5787 31.031C50.3207 30.8674 50.0385 30.7447 49.7422 30.6674C49.4018 30.5736 49.0499 30.5271 48.6966 30.5293C48.1675 30.4912 47.6413 30.6345 47.2063 30.9351C47.0458 31.0591 46.9168 31.2185 46.8296 31.4007C46.7425 31.5828 46.6996 31.7826 46.7044 31.9841C46.6992 32.1666 46.7375 32.3477 46.8161 32.5129C46.8947 32.6781 47.0114 32.8227 47.1568 32.935C47.4832 33.1858 47.8885 33.3146 48.3014 33.2987C48.6993 33.301 49.0908 33.195 49.432 32.9923ZM53.1906 27.1016H54.3359V28.2355H54.3923C54.5577 27.821 54.8619 27.4753 55.2539 27.2562C55.6572 27.0234 56.1164 26.9023 56.5832 26.9057C56.7582 26.9033 56.933 26.9174 57.1053 26.9477V28.1651C56.8917 28.1234 56.674 28.1052 56.4564 28.1106C56.179 28.1004 55.9026 28.1487 55.6455 28.2523C55.3885 28.3559 55.1566 28.5125 54.9653 28.7116C54.5739 29.139 54.3683 29.7018 54.393 30.2781V34.2379H53.1913L53.1906 27.1016ZM60.5035 34.2096C60.2705 34.1245 60.0571 33.9938 59.8762 33.8253C59.6909 33.6493 59.5464 33.4358 59.4523 33.1993C59.3515 32.9206 59.3042 32.6257 59.3129 32.3298V28.0719H58.0582V26.9898H59.3129V24.9754H60.514V26.9898H62.2671V28.0678H60.514V32.042C60.489 32.3543 60.5688 32.6661 60.7412 32.9288C60.8379 33.0365 60.958 33.1209 61.0926 33.1757C61.2271 33.2305 61.3726 33.2541 61.5178 33.2449C61.7994 33.2424 62.0744 33.1595 62.3096 33.0061V34.1675C62.1716 34.2305 62.0265 34.2768 61.8774 34.3056C61.6933 34.3366 61.5066 34.3504 61.3198 34.347C61.041 34.3505 60.764 34.3028 60.5028 34.2062L60.5035 34.2096ZM63.6334 26.9933H64.78V28.0429H64.8351C65.0609 27.6615 65.3884 27.3489 65.7817 27.1396C66.2021 26.8962 66.6805 26.7683 67.1675 26.769C67.5333 26.7447 67.9 26.799 68.2426 26.9283C68.5851 27.0575 68.8954 27.2586 69.152 27.5178C69.6339 28.0853 69.8794 28.8132 69.8386 29.5535V34.1282H68.6369V29.735C68.6609 29.4751 68.6306 29.2131 68.548 28.9652C68.4654 28.7173 68.3322 28.4889 68.1566 28.2941C67.7939 27.9808 67.3219 27.8203 66.8413 27.8469C66.4697 27.8422 66.1062 27.9546 65.8033 28.1678C65.4956 28.3841 65.2497 28.6756 65.0895 29.0139C64.9213 29.3562 64.8341 29.7319 64.8344 30.1125V34.1282H63.6327L63.6334 26.9933ZM72.9183 33.8625C72.3741 33.5385 71.9313 33.0715 71.6392 32.5134C71.3268 31.9147 71.169 31.2487 71.1798 30.5749C71.173 29.9159 71.3209 29.2643 71.612 28.6716C71.8847 28.109 72.3068 27.6305 72.8333 27.2873C73.3795 26.9363 74.0196 26.7558 74.6707 26.769C75.3154 26.7535 75.9518 26.9162 76.5082 27.239C77.0232 27.5481 77.4378 27.9969 77.703 28.5322C77.9895 29.1211 78.1327 29.7682 78.1212 30.4217C78.123 30.544 78.1087 30.666 78.0787 30.7847H72.3829C72.3935 31.2676 72.5296 31.7396 72.7782 32.1552C72.9949 32.5111 73.3055 32.8017 73.6767 32.9958C74.0269 33.1788 74.4169 33.2748 74.8129 33.2752C75.255 33.2816 75.6899 33.1641 76.0675 32.9362C76.445 32.7084 76.7498 32.3795 76.9467 31.9875L77.9644 32.4768C77.6713 33.0359 77.235 33.5091 76.6992 33.8487C76.1246 34.1759 75.4738 34.3493 74.8109 34.3517C74.1481 34.3541 73.496 34.1855 72.919 33.8625H72.9183ZM76.847 29.8054C76.8243 29.4925 76.738 29.1874 76.5932 28.9083C76.43 28.5962 76.1831 28.3347 75.8794 28.1527C75.51 27.9364 75.0856 27.8298 74.6568 27.8456C74.1261 27.8326 73.6115 28.0258 73.2229 28.3838C72.8198 28.7637 72.5497 29.261 72.452 29.8034L76.847 29.8054ZM79.5035 26.9933H80.6488V28.1409H80.7052C80.8597 27.7328 81.1481 27.388 81.5243 27.1617C81.8999 26.9094 82.3425 26.7728 82.7964 26.769C83.0868 26.7617 83.3754 26.8144 83.6441 26.9236V28.1941C83.3273 28.0414 82.9787 27.9646 82.6264 27.9698C82.2833 27.9686 81.9481 28.0714 81.6658 28.2644C81.3699 28.4663 81.1302 28.7388 80.9687 29.0567C80.7949 29.3878 80.7054 29.7559 80.708 30.1291V34.1261H79.5063L79.5035 26.9933Z" stroke="white" stroke-width="0.276528" stroke-miterlimit="10"/>
</g>
<g clip-path="url(#clip2_84_279)">
<path d="M41.019 18.0911C39.9958 17.4981 39.1475 16.6393 38.5617 15.6035C37.9656 14.5355 37.6523 13.3297 37.6523 12.103C37.6523 10.8763 37.9656 9.6705 38.5617 8.60253C39.1519 7.56379 40.0041 6.70243 41.0311 6.10655C42.0581 5.51067 43.2231 5.20167 44.4067 5.21115C45.3325 5.20455 46.2506 5.38026 47.1101 5.72849C47.9084 6.04102 48.6228 6.53937 49.1956 7.18324L48.0837 8.30976C47.6614 7.78598 47.1169 7.37694 46.4994 7.1196C45.8425 6.83979 45.1364 6.69781 44.4238 6.70227C43.5221 6.69674 42.6345 6.9286 41.848 7.37509C41.0538 7.82263 40.3933 8.4784 39.9358 9.27353C39.4639 10.1401 39.2163 11.1135 39.2163 12.103C39.2163 13.0926 39.4639 14.066 39.9358 14.9325C40.3949 15.7295 41.0588 16.3856 41.8569 16.831C42.5834 17.2238 43.3862 17.4505 44.2087 17.4951C45.0311 17.5397 45.8532 17.4012 46.617 17.0892C47.1883 16.8247 47.7044 16.4522 48.1376 15.9917C48.4655 15.6279 48.7249 15.2064 48.9028 14.7479C49.1032 14.2318 49.2258 13.688 49.2665 13.135H44.4418V11.6802H50.7053C50.7633 11.9967 50.7933 12.3177 50.7951 12.6395C50.7957 13.4432 50.6668 14.2417 50.4134 15.0034C50.1636 15.7613 49.7465 16.4516 49.1938 17.0219C48.5821 17.6792 47.8378 18.1955 47.0115 18.5356C46.1851 18.8758 45.2961 19.0318 44.4049 18.9931C43.2167 19.0037 42.0482 18.6923 41.019 18.0911ZM54.6275 18.3312C53.9059 17.8982 53.3156 17.273 52.921 16.5236C52.5203 15.7437 52.311 14.8775 52.311 13.9983C52.311 13.1191 52.5203 12.2529 52.921 11.4729C53.3169 10.725 53.9069 10.1007 54.6275 9.66723C55.3755 9.23226 56.223 9.00337 57.0856 9.00337C57.9483 9.00337 58.7958 9.23226 59.5438 9.66723C60.2647 10.1003 60.8548 10.7248 61.2503 11.4729C61.651 12.2529 61.8602 13.1191 61.8602 13.9983C61.8602 14.8775 61.651 15.7437 61.2503 16.5236C60.856 17.2732 60.2657 17.8985 59.5438 18.3312C58.7957 18.7657 57.9482 18.9943 57.0856 18.9943C56.2231 18.9943 55.3756 18.7657 54.6275 18.3312ZM58.6789 17.1428C59.1785 16.8452 59.5877 16.4143 59.8618 15.8972C60.1555 15.3087 60.3086 14.6586 60.3086 13.9992C60.3086 13.3398 60.1555 12.6897 59.8618 12.1012C59.5876 11.5847 59.1784 11.1544 58.6789 10.8574C58.196 10.5705 57.6455 10.4209 57.0856 10.4246C56.5136 10.4222 55.9515 10.5768 55.4594 10.872C54.9672 11.1673 54.5633 11.5921 54.2907 12.1012C53.9969 12.6897 53.8438 13.3398 53.8438 13.9992C53.8438 14.6586 53.9969 15.3087 54.2907 15.8972C54.4941 16.2746 54.7701 16.607 55.1023 16.8748C55.4346 17.1426 55.8165 17.3403 56.2254 17.4564C56.6344 17.5725 57.0621 17.6046 57.4835 17.5507C57.9049 17.4968 58.3113 17.3582 58.6789 17.1428ZM65.4607 18.3312C64.7412 17.8968 64.1532 17.271 63.7605 16.5218C63.3598 15.7419 63.1506 14.8756 63.1506 13.9965C63.1506 13.1173 63.3598 12.2511 63.7605 11.4711C64.1539 10.7246 64.7408 10.1007 65.458 9.66632C66.206 9.23135 67.0536 9.00246 67.9162 9.00246C68.7788 9.00246 69.6264 9.23135 70.3744 9.66632C71.0951 10.0995 71.6852 10.7239 72.0808 11.472C72.4816 12.252 72.6908 13.1182 72.6908 13.9974C72.6908 14.8765 72.4816 15.7428 72.0808 16.5227C71.6862 17.272 71.0959 17.8973 70.3744 18.3303C69.6262 18.7648 68.7787 18.9934 67.9162 18.9934C67.0537 18.9934 66.2062 18.7648 65.458 18.3303M69.5095 17.1419C70.0093 16.844 70.419 16.4132 70.6941 15.8963C70.9871 15.3075 71.1397 14.6575 71.1397 13.9983C71.1397 13.3391 70.9871 12.689 70.6941 12.1003C70.4189 11.5839 70.0092 11.1537 69.5095 10.8565C69.0266 10.5695 68.4761 10.42 67.9162 10.4237C67.3441 10.4213 66.7821 10.5759 66.2899 10.8711C65.7977 11.1664 65.3939 11.5911 65.1212 12.1003C64.8283 12.689 64.6757 13.3391 64.6757 13.9983C64.6757 14.6575 64.8283 15.3075 65.1212 15.8963C65.3935 16.4059 65.7972 16.8312 66.2894 17.1267C66.7817 17.4223 67.3439 17.5772 67.9162 17.5747C68.476 17.5778 69.0264 17.4283 69.5095 17.1419ZM75.8458 22.2017C75.1875 21.7505 74.6885 21.0985 74.4213 20.3405L75.8233 19.7332C76.0255 20.2684 76.3847 20.7282 76.8526 21.0506C77.3549 21.3966 77.9517 21.5743 78.559 21.5589C78.9658 21.5841 79.3733 21.525 79.7566 21.3851C80.1399 21.2451 80.491 21.0274 80.7882 20.7451C81.0663 20.4311 81.2796 20.064 81.4156 19.6654C81.5516 19.2668 81.6076 18.8447 81.5803 18.4239V17.3747H81.5076C81.186 17.8697 80.744 18.2726 80.2242 18.5448C79.6426 18.8523 78.9941 19.007 78.3381 18.9949C77.5615 19.0009 76.7996 18.7799 76.144 18.3584C75.4702 17.9232 74.9258 17.3111 74.5686 16.5873C74.1847 15.7808 73.9854 14.8971 73.9854 14.0019C73.9854 13.1067 74.1847 12.223 74.5686 11.4166C74.9245 10.6894 75.4699 10.0745 76.1458 9.63813C76.8012 9.21621 77.5632 8.99519 78.3399 9.00168C78.9963 8.99097 79.6448 9.14728 80.226 9.45629C80.75 9.73054 81.1929 10.1406 81.5094 10.6446H81.5821V9.29899H83.0569V18.3312C83.0999 18.9626 83.0121 19.5962 82.7989 20.1912C82.5858 20.7862 82.2521 21.3295 81.8192 21.7862C80.9925 22.4767 79.973 22.888 78.9038 22.9625C77.8345 23.037 76.769 22.771 75.8566 22.2017M80.0778 17.1446C80.5467 16.8417 80.9243 16.4139 81.169 15.9081C81.4554 15.3143 81.5962 14.6593 81.5794 13.9987C81.5974 13.3319 81.4566 12.6705 81.169 12.0703C80.9256 11.5665 80.5475 11.1419 80.0778 10.8447C79.6153 10.5671 79.0872 10.4214 78.5496 10.4232C78.0119 10.4249 77.4848 10.574 77.0241 10.8547C76.5506 11.1548 76.1687 11.5823 75.9212 12.0894C75.6361 12.6836 75.4959 13.3384 75.5126 13.9987C75.4967 14.6626 75.6368 15.3207 75.9212 15.919C76.1577 16.421 76.5314 16.8438 76.9979 17.1374C77.4645 17.431 78.0044 17.583 78.5536 17.5756C79.0907 17.5816 79.6183 17.4321 80.0742 17.1446M85.3273 5.5021H86.8748V18.6994H85.3273V5.5021ZM90.9173 18.3484C90.2159 17.922 89.6453 17.3066 89.2692 16.5709C88.8668 15.7821 88.6634 14.9047 88.6774 14.0169C88.668 13.1488 88.858 12.2904 89.2324 11.5093C89.5849 10.7683 90.1293 10.1379 90.8077 9.68541C91.5117 9.22321 92.3363 8.98535 93.1752 9.00259C94.0059 8.98197 94.8258 9.1964 95.5427 9.62177C96.2062 10.0287 96.7403 10.6201 97.0812 11.3256C97.4509 12.1013 97.6355 12.954 97.6201 13.8151C97.623 13.9763 97.6045 14.1371 97.5653 14.2933H90.2248C90.239 14.9297 90.415 15.5516 90.7359 16.099C91.0145 16.5678 91.4141 16.9507 91.8918 17.2065C92.3436 17.4477 92.8467 17.5741 93.3575 17.5747C93.9272 17.5831 94.4875 17.4282 94.974 17.128C95.4604 16.8278 95.8531 16.3945 96.1067 15.8781L97.418 16.5227C97.0404 17.2594 96.4783 17.8827 95.7879 18.3303C95.0475 18.7614 94.209 18.9898 93.355 18.993C92.5009 18.9962 91.6607 18.774 90.9173 18.3484ZM95.9792 13.0031C95.95 12.5906 95.8382 12.1885 95.6505 11.8212C95.4408 11.4101 95.1232 11.0656 94.7326 10.8256C94.2563 10.5407 93.7092 10.4002 93.1563 10.421C92.4728 10.4047 91.8099 10.6591 91.3089 11.1302C90.7919 11.6317 90.4459 12.2867 90.3209 13.0004L95.9792 13.0031ZM103.224 5.5021H107.613C108.317 5.49657 109.011 5.66709 109.634 5.99853C110.243 6.32134 110.755 6.80247 111.118 7.39236C111.481 8.00128 111.673 8.69907 111.673 9.41037C111.673 10.1217 111.481 10.8195 111.118 11.4284C110.754 12.0173 110.242 12.4974 109.634 12.8195C109.012 13.1524 108.317 13.3233 107.613 13.3168H104.754V18.7003H103.227L103.224 5.5021ZM107.649 11.8239C108.102 11.8333 108.547 11.7115 108.933 11.4729C109.292 11.2515 109.59 10.9411 109.798 10.571C110 10.2186 110.107 9.81811 110.107 9.41037C110.107 9.00263 110 8.60217 109.798 8.24975C109.59 7.87741 109.293 7.56456 108.933 7.34053C108.546 7.10366 108.101 6.9826 107.649 6.9914H104.754V11.8203L107.649 11.8239ZM114.788 18.5885C114.28 18.3419 113.851 17.9556 113.549 17.4738C113.255 16.9891 113.104 16.4296 113.113 15.8608C113.094 15.4096 113.186 14.9608 113.379 14.5539C113.573 14.1471 113.863 13.795 114.223 13.5287C115.042 12.9456 116.027 12.6511 117.028 12.6904C117.552 12.6864 118.075 12.7475 118.584 12.8722C118.97 12.9584 119.341 13.1017 119.685 13.2977V12.7258C119.697 12.4075 119.638 12.0906 119.512 11.7987C119.385 11.5068 119.196 11.2475 118.957 11.0401C118.443 10.6049 117.788 10.3781 117.118 10.4037C116.619 10.3986 116.126 10.5159 115.681 10.7456C115.258 10.9611 114.9 11.2888 114.645 11.6939L113.477 10.8092C113.85 10.2369 114.369 9.77832 114.98 9.48266C115.64 9.15711 116.367 8.99241 117.101 9.00168C118.184 8.9389 119.25 9.2988 120.079 10.0073C120.444 10.3574 120.729 10.7833 120.916 11.2556C121.103 11.728 121.188 12.2357 121.163 12.744V18.6985H119.687V17.3528H119.615C119.318 17.8365 118.905 18.236 118.414 18.5139C117.867 18.8362 117.243 19.0016 116.61 18.9922C115.981 19.004 115.357 18.8654 114.791 18.5876M118.213 17.2056C118.658 16.9405 119.029 16.565 119.291 16.1145C119.557 15.6632 119.695 15.1468 119.691 14.6216C119.358 14.4059 118.995 14.2442 118.613 14.1424C118.174 14.0188 117.721 13.9576 117.266 13.9606C116.584 13.9103 115.906 14.0991 115.346 14.4952C115.139 14.6585 114.973 14.8685 114.86 15.1085C114.748 15.3485 114.693 15.6117 114.699 15.8772C114.692 16.1177 114.742 16.3563 114.843 16.574C114.944 16.7916 115.094 16.9821 115.282 17.1301C115.702 17.4606 116.225 17.6302 116.757 17.6093C117.27 17.6122 117.774 17.4722 118.213 17.2046M123.056 9.44356H124.532V10.9392H124.604C124.817 10.3931 125.209 9.93763 125.714 9.64904C126.234 9.34225 126.826 9.18271 127.427 9.18716C127.653 9.18405 127.878 9.20262 128.1 9.24262V10.8465C127.825 10.7916 127.544 10.7675 127.264 10.7747C126.906 10.7612 126.55 10.8249 126.219 10.9614C125.888 11.098 125.589 11.3042 125.343 11.5666C124.838 12.1296 124.573 12.8711 124.605 13.6305V18.8476H123.057L123.056 9.44356ZM132.478 18.8085C132.178 18.6963 131.903 18.5241 131.67 18.3021C131.431 18.0703 131.245 17.789 131.124 17.4774C130.994 17.1102 130.933 16.7217 130.944 16.3318V10.7219H129.328V9.29808H130.944V6.64407H132.492V9.29808H134.751V10.7183H132.492V15.9545C132.46 16.3659 132.562 16.7767 132.785 17.1228C132.909 17.2647 133.064 17.376 133.237 17.4481C133.411 17.5203 133.598 17.5514 133.785 17.5392C134.148 17.5359 134.502 17.4267 134.805 17.2246V18.7549C134.628 18.8378 134.441 18.8988 134.248 18.9367C134.011 18.9776 133.771 18.9958 133.53 18.9913C133.172 18.9948 132.817 18.9313 132.482 18.804M136.514 9.29626H137.992V10.6792H138.063C138.354 10.1766 138.776 9.76482 139.283 9.48902C139.824 9.16834 140.441 8.99979 141.068 9.00077C141.539 8.96873 142.012 9.0403 142.453 9.21059C142.895 9.38087 143.294 9.64583 143.625 9.98727C144.246 10.7351 144.562 11.6941 144.51 12.6695V18.6967H142.961V12.9086C142.992 12.5661 142.953 12.2208 142.847 11.8943C142.74 11.5677 142.569 11.2667 142.342 11.0101C141.875 10.5973 141.267 10.3859 140.648 10.421C140.169 10.4148 139.701 10.5628 139.31 10.8438C138.914 11.1287 138.597 11.5128 138.391 11.9585C138.174 12.4094 138.062 12.9044 138.062 13.4059V18.6967H136.514L136.514 9.29626ZM148.478 18.3466C147.776 17.9198 147.206 17.3045 146.83 16.5691C146.427 15.7803 146.224 14.9028 146.238 14.0151C146.229 13.1469 146.419 12.2884 146.794 11.5075C147.146 10.7662 147.69 10.1358 148.368 9.68359C149.072 9.22123 149.897 8.98337 150.735 9.00077C151.566 8.9803 152.386 9.19472 153.103 9.61995C153.766 10.0272 154.301 10.6185 154.642 11.3238C155.011 12.0997 155.196 12.9522 155.181 13.8133C155.184 13.9744 155.165 14.1352 155.126 14.2915H147.788C147.801 14.9277 147.977 15.5496 148.297 16.0972C148.576 16.5661 148.977 16.949 149.455 17.2046C149.906 17.4459 150.408 17.5722 150.919 17.5729C151.488 17.5812 152.049 17.4264 152.535 17.1262C153.022 16.826 153.414 16.3927 153.668 15.8763L154.979 16.5209C154.602 17.2576 154.039 17.8809 153.349 18.3284C152.609 18.7596 151.77 18.988 150.916 18.9912C150.062 18.9944 149.221 18.7722 148.478 18.3466ZM153.54 13.0013C153.511 12.5891 153.4 12.187 153.213 11.8193C153.003 11.4082 152.685 11.0637 152.294 10.8238C151.818 10.5388 151.271 10.3983 150.718 10.4191C150.035 10.4021 149.372 10.6567 148.871 11.1283C148.352 11.6288 148.004 12.284 147.878 12.9986L153.54 13.0013ZM156.963 9.29626H158.439V10.8083H158.511C158.71 10.2707 159.082 9.81628 159.567 9.51812C160.051 9.18573 160.621 9.00573 161.206 9.00077C161.58 8.99115 161.952 9.06051 162.298 9.20443V10.8847C161.89 10.6836 161.441 10.5824 160.987 10.5892C160.545 10.5876 160.113 10.723 159.749 10.9774C159.368 11.2434 159.059 11.6024 158.851 12.0212C158.627 12.4575 158.512 12.9425 158.515 13.4341V18.7003H156.967L156.963 9.29626Z" fill="white"/>
<path d="M41.019 18.0911C39.9958 17.4981 39.1475 16.6393 38.5617 15.6035C37.9656 14.5355 37.6523 13.3297 37.6523 12.103C37.6523 10.8763 37.9656 9.6705 38.5617 8.60253C39.1519 7.56379 40.0041 6.70243 41.0311 6.10655C42.0581 5.51067 43.2231 5.20167 44.4067 5.21115C45.3325 5.20455 46.2506 5.38026 47.1101 5.72849C47.9084 6.04102 48.6228 6.53937 49.1956 7.18324L48.0837 8.30976C47.6614 7.78598 47.1169 7.37694 46.4994 7.1196C45.8425 6.83979 45.1364 6.69781 44.4238 6.70227C43.5221 6.69674 42.6345 6.9286 41.848 7.37509C41.0538 7.82263 40.3933 8.4784 39.9358 9.27353C39.4639 10.1401 39.2163 11.1135 39.2163 12.103C39.2163 13.0926 39.4639 14.066 39.9358 14.9325C40.3949 15.7295 41.0588 16.3856 41.8569 16.831C42.5834 17.2238 43.3862 17.4505 44.2087 17.4951C45.0311 17.5397 45.8532 17.4012 46.617 17.0892C47.1883 16.8247 47.7044 16.4522 48.1376 15.9917C48.4655 15.6279 48.7249 15.2064 48.9028 14.7479C49.1032 14.2318 49.2258 13.688 49.2665 13.135H44.4418V11.6802H50.7053C50.7633 11.9967 50.7933 12.3177 50.7951 12.6395C50.7957 13.4432 50.6668 14.2417 50.4134 15.0034C50.1636 15.7613 49.7465 16.4516 49.1938 17.0219C48.5821 17.6792 47.8378 18.1955 47.0115 18.5356C46.1851 18.8758 45.2961 19.0318 44.4049 18.9931C43.217 19.0036 42.048 18.6922 41.019 18.0911ZM54.6284 18.3312C53.9068 17.8982 53.3165 17.273 52.9219 16.5236C52.5212 15.7437 52.3119 14.8775 52.3119 13.9983C52.3119 13.1191 52.5212 12.2529 52.9219 11.4729C53.3178 10.725 53.9078 10.1007 54.6284 9.66723C55.3764 9.23226 56.2239 9.00337 57.0865 9.00337C57.9492 9.00337 58.7967 9.23226 59.5447 9.66723C60.2656 10.1003 60.8557 10.7248 61.2512 11.4729C61.6519 12.2529 61.8611 13.1191 61.8611 13.9983C61.8611 14.8775 61.6519 15.7437 61.2512 16.5236C60.8569 17.2732 60.2666 17.8985 59.5447 18.3312C58.7966 18.7657 57.9491 18.9943 57.0865 18.9943C56.224 18.9943 55.3765 18.7657 54.6284 18.3312ZM58.6798 17.1428C59.1794 16.8452 59.5886 16.4143 59.8627 15.8972C60.1564 15.3087 60.3095 14.6586 60.3095 13.9992C60.3095 13.3398 60.1564 12.6897 59.8627 12.1012C59.5885 11.5847 59.1793 11.1544 58.6798 10.8574C58.1969 10.5705 57.6464 10.4209 57.0865 10.4246C56.5145 10.4222 55.9524 10.5768 55.4603 10.872C54.9681 11.1673 54.5642 11.5921 54.2916 12.1012C53.9978 12.6897 53.8447 13.3398 53.8447 13.9992C53.8447 14.6586 53.9978 15.3087 54.2916 15.8972C54.495 16.2746 54.771 16.607 55.1032 16.8748C55.4355 17.1426 55.8174 17.3403 56.2263 17.4564C56.6353 17.5725 57.063 17.6046 57.4844 17.5507C57.9058 17.4968 58.3122 17.3582 58.6798 17.1428ZM65.4616 18.3312C64.7418 17.8969 64.1534 17.2711 63.7605 16.5218C63.3598 15.7419 63.1506 14.8756 63.1506 13.9965C63.1506 13.1173 63.3598 12.2511 63.7605 11.4711C64.1539 10.7246 64.7408 10.1007 65.458 9.66632C66.206 9.23135 67.0536 9.00246 67.9162 9.00246C68.7788 9.00246 69.6264 9.23135 70.3744 9.66632C71.0951 10.0995 71.6852 10.7239 72.0808 11.472C72.4816 12.252 72.6908 13.1182 72.6908 13.9974C72.6908 14.8765 72.4816 15.7428 72.0808 16.5227C71.6862 17.272 71.0959 17.8973 70.3744 18.3303C69.6262 18.7648 68.7787 18.9934 67.9162 18.9934C67.0537 18.9934 66.2062 18.7648 65.458 18.3303L65.4616 18.3312ZM69.5131 17.1428C70.0129 16.8449 70.4226 16.4141 70.6977 15.8972C70.9907 15.3085 71.1433 14.6584 71.1433 13.9992C71.1433 13.34 70.9907 12.6899 70.6977 12.1012C70.4225 11.5848 70.0128 11.1547 69.5131 10.8574C69.0302 10.5705 68.4797 10.4209 67.9198 10.4246C67.3477 10.4222 66.7857 10.5768 66.2935 10.872C65.8013 11.1673 65.3974 11.5921 65.1248 12.1012C64.8318 12.6899 64.6792 13.34 64.6792 13.9992C64.6792 14.6584 64.8318 15.3085 65.1248 15.8972C65.3971 16.4068 65.8008 16.8321 66.293 17.1277C66.7853 17.4232 67.3475 17.5781 67.9198 17.5756C68.48 17.5786 69.0307 17.4287 69.514 17.1419L69.5131 17.1428ZM75.8494 22.2026C75.1896 21.7517 74.6893 21.0994 74.4213 20.3405L75.8233 19.7332C76.0255 20.2684 76.3847 20.7282 76.8526 21.0506C77.3549 21.3966 77.9517 21.5743 78.559 21.5589C78.9658 21.5841 79.3733 21.525 79.7566 21.3851C80.1399 21.2451 80.491 21.0274 80.7882 20.7451C81.0663 20.4311 81.2796 20.064 81.4156 19.6654C81.5516 19.2668 81.6076 18.8447 81.5803 18.4239V17.3747H81.5076C81.186 17.8697 80.744 18.2726 80.2242 18.5448C79.6426 18.8523 78.9941 19.007 78.3381 18.9949C77.5615 19.0009 76.7996 18.7799 76.144 18.3584C75.4702 17.9232 74.9258 17.3111 74.5686 16.5873C74.1848 15.7808 73.9854 14.8971 73.9854 14.0019C73.9854 13.1067 74.1848 12.223 74.5686 11.4166C74.9245 10.6894 75.4699 10.0745 76.1458 9.63813C76.8012 9.21621 77.5632 8.99519 78.3399 9.00168C78.9963 8.99097 79.6448 9.14728 80.226 9.45629C80.7501 9.73054 81.1929 10.1406 81.5094 10.6446H81.5821V9.29899H83.0569V18.3312C83.0999 18.9626 83.0121 19.5962 82.7989 20.1912C82.5858 20.7862 82.2521 21.3295 81.8192 21.7862C80.9925 22.4767 79.973 22.888 78.9038 22.9625C77.8345 23.037 76.769 22.771 75.8566 22.2017L75.8494 22.2026ZM80.0706 17.1455C80.5396 16.8426 80.9171 16.4148 81.1618 15.909C81.4482 15.3152 81.589 14.6602 81.5723 13.9997C81.5902 13.3328 81.4494 12.6714 81.1618 12.0712C80.9184 11.5674 80.5403 11.1428 80.0706 10.8456C79.6081 10.568 79.0801 10.4223 78.5424 10.4241C78.0048 10.4258 77.4776 10.5749 77.0169 10.8556C76.5434 11.1557 76.1615 11.5832 75.914 12.0903C75.6289 12.6845 75.4888 13.3393 75.5054 13.9997C75.4895 14.6635 75.6296 15.3216 75.914 15.9199C76.1506 16.4219 76.5242 16.8447 76.9907 17.1383C77.4573 17.4319 77.9972 17.5839 78.5465 17.5765C79.0864 17.5838 79.6169 17.4339 80.0751 17.1446L80.0706 17.1455ZM85.3273 5.5021H86.8748V18.6994H85.3273V5.5021ZM90.9173 18.3484C90.2159 17.922 89.6453 17.3066 89.2692 16.5709C88.8668 15.7821 88.6634 14.9047 88.6774 14.0169C88.668 13.1488 88.858 12.2904 89.2324 11.5093C89.5849 10.7683 90.1293 10.1379 90.8077 9.68541C91.5117 9.22321 92.3363 8.98535 93.1752 9.00259C94.0059 8.98197 94.8258 9.1964 95.5427 9.62177C96.2062 10.0287 96.7403 10.6201 97.0812 11.3256C97.4509 12.1013 97.6355 12.954 97.6201 13.8151C97.623 13.9763 97.6045 14.1371 97.5653 14.2933H90.2248C90.239 14.9297 90.415 15.5516 90.7359 16.099C91.0145 16.5678 91.4141 16.9507 91.8918 17.2065C92.3436 17.4477 92.8467 17.5741 93.3575 17.5747C93.9272 17.5831 94.4875 17.4282 94.974 17.128C95.4604 16.8278 95.8531 16.3945 96.1067 15.8781L97.418 16.5227C97.0404 17.2594 96.4783 17.8827 95.7879 18.3303C95.0475 18.7614 94.209 18.9898 93.355 18.993C92.5009 18.9962 91.6607 18.774 90.9173 18.3484ZM95.9792 13.0031C95.95 12.5906 95.8382 12.1885 95.6505 11.8212C95.4408 11.4101 95.1232 11.0656 94.7326 10.8256C94.2563 10.5407 93.7092 10.4002 93.1563 10.421C92.4728 10.4047 91.8099 10.6591 91.3089 11.1302C90.7919 11.6317 90.4459 12.2867 90.321 13.0004L95.9792 13.0031ZM103.224 5.5021H107.613C108.317 5.49657 109.011 5.66709 109.634 5.99853C110.243 6.32134 110.755 6.80247 111.118 7.39236C111.481 8.00128 111.673 8.69907 111.673 9.41037C111.673 10.1217 111.481 10.8195 111.118 11.4284C110.754 12.0173 110.242 12.4974 109.634 12.8195C109.012 13.1524 108.317 13.3233 107.613 13.3168H104.754V18.7003H103.227L103.224 5.5021ZM107.649 11.8239C108.102 11.8333 108.547 11.7115 108.933 11.4729C109.292 11.2515 109.59 10.9411 109.798 10.571C110 10.2186 110.107 9.81811 110.107 9.41037C110.107 9.00263 110 8.60217 109.798 8.24975C109.59 7.87741 109.293 7.56456 108.933 7.34053C108.546 7.10366 108.101 6.9826 107.649 6.9914H104.754V11.8203L107.649 11.8239ZM114.788 18.5885C114.28 18.3419 113.851 17.9556 113.549 17.4738C113.255 16.9891 113.104 16.4296 113.113 15.8608C113.094 15.4096 113.186 14.9608 113.379 14.5539C113.573 14.1471 113.863 13.795 114.223 13.5287C115.042 12.9456 116.027 12.6511 117.028 12.6904C117.552 12.6864 118.075 12.7475 118.584 12.8722C118.97 12.9584 119.341 13.1017 119.685 13.2977V12.7258C119.697 12.4075 119.638 12.0906 119.512 11.7987C119.385 11.5068 119.196 11.2475 118.957 11.0401C118.443 10.6049 117.788 10.3781 117.118 10.4037C116.619 10.3986 116.126 10.5159 115.681 10.7456C115.258 10.9611 114.9 11.2888 114.645 11.6939L113.477 10.8092C113.85 10.2369 114.369 9.77832 114.98 9.48266C115.64 9.15711 116.367 8.99241 117.101 9.00168C118.184 8.9389 119.25 9.2988 120.079 10.0073C120.444 10.3574 120.729 10.7833 120.916 11.2556C121.103 11.728 121.188 12.2357 121.163 12.744V18.6985H119.687V17.3528H119.615C119.318 17.8365 118.905 18.236 118.414 18.5139C117.866 18.8362 117.243 19.0016 116.61 18.9922C115.979 19.0049 115.356 18.8666 114.788 18.5885ZM118.211 17.2065C118.656 16.9414 119.027 16.5659 119.288 16.1154C119.554 15.6641 119.692 15.1477 119.688 14.6225C119.356 14.4068 118.992 14.2451 118.61 14.1433C118.172 14.0197 117.718 13.9585 117.263 13.9615C116.581 13.9113 115.903 14.1 115.343 14.4961C115.136 14.6594 114.97 14.8695 114.858 15.1094C114.745 15.3494 114.69 15.6126 114.696 15.8781C114.69 16.1186 114.739 16.3573 114.84 16.5749C114.941 16.7925 115.092 16.983 115.279 17.131C115.7 17.4615 116.222 17.6311 116.754 17.6102C117.266 17.6132 117.771 17.4736 118.211 17.2065ZM123.053 9.44538H124.529V10.9392H124.602C124.815 10.3931 125.207 9.93763 125.712 9.64904C126.231 9.34225 126.823 9.18271 127.425 9.18716C127.65 9.18405 127.875 9.20262 128.097 9.24262V10.8465C127.822 10.7916 127.542 10.7675 127.261 10.7747C126.904 10.7612 126.548 10.8249 126.216 10.9614C125.885 11.098 125.586 11.3042 125.34 11.5666C124.836 12.1296 124.571 12.8711 124.603 13.6305V18.8476H123.054L123.053 9.44538ZM132.476 18.8103C132.175 18.6982 131.9 18.5259 131.667 18.3039C131.429 18.0721 131.242 17.7908 131.121 17.4792C130.991 17.112 130.93 16.7235 130.942 16.3336V10.7237H129.325V9.29808H130.942V6.64407H132.489V9.29808H134.748V10.7183H132.489V15.9545C132.457 16.3659 132.56 16.7767 132.782 17.1228C132.906 17.2647 133.061 17.376 133.235 17.4481C133.408 17.5203 133.595 17.5514 133.782 17.5392C134.145 17.5359 134.5 17.4267 134.803 17.2246V18.7549C134.625 18.8378 134.438 18.8988 134.246 18.9367C134.009 18.9776 133.768 18.9958 133.527 18.9913C133.168 18.9959 132.811 18.933 132.475 18.8058L132.476 18.8103ZM136.508 9.30263H137.986V10.6855H138.057C138.347 10.183 138.769 9.77119 139.276 9.49538C139.818 9.17471 140.434 9.00616 141.062 9.00713C141.533 8.97509 142.006 9.04667 142.447 9.21696C142.888 9.38724 143.288 9.65219 143.619 9.99363C144.239 10.7414 144.556 11.7005 144.503 12.6758V18.703H142.955V12.915C142.986 12.5725 142.947 12.2272 142.84 11.9006C142.734 11.574 142.562 11.2731 142.336 11.0165C141.869 10.6037 141.261 10.3922 140.641 10.4273C140.163 10.4212 139.694 10.5692 139.304 10.8501C138.908 11.1351 138.591 11.5191 138.384 11.9648C138.168 12.4158 138.055 12.9108 138.056 13.4123V18.703H136.507L136.508 9.30263ZM148.471 18.353C147.77 17.9261 147.2 17.3108 146.823 16.5755C146.421 15.7866 146.217 14.9092 146.231 14.0215C146.223 13.1532 146.413 12.2948 146.788 11.5139C147.14 10.7726 147.683 10.1421 148.362 9.68995C149.066 9.2276 149.89 8.98973 150.729 9.00713C151.56 8.98666 152.38 9.20108 153.097 9.62631C153.76 10.0336 154.294 10.6249 154.636 11.3302C155.005 12.106 155.19 12.9586 155.175 13.8196C155.177 13.9808 155.159 14.1415 155.12 14.2979H147.782C147.795 14.9341 147.971 15.556 148.291 16.1036C148.57 16.5725 148.97 16.9554 149.448 17.211C149.9 17.4522 150.402 17.5786 150.912 17.5792C151.482 17.5876 152.042 17.4328 152.529 17.1326C153.015 16.8324 153.408 16.3991 153.662 15.8826L154.973 16.5273C154.595 17.264 154.033 17.8873 153.343 18.3348C152.602 18.7659 151.764 18.9943 150.91 18.9975C150.056 19.0007 149.216 18.7786 148.472 18.353H148.471ZM153.533 13.0077C153.504 12.5954 153.393 12.1934 153.206 11.8257C152.996 11.4145 152.678 11.07 152.287 10.8301C151.811 10.5452 151.264 10.4047 150.711 10.4255C150.028 10.4085 149.364 10.663 148.864 11.1347C148.344 11.6352 147.996 12.2904 147.87 13.005L153.533 13.0077ZM156.956 9.30263H158.432V10.8147H158.504C158.703 10.277 159.075 9.82264 159.56 9.52448C160.044 9.19209 160.614 9.01209 161.199 9.00713C161.573 8.99751 161.945 9.06687 162.291 9.2108V10.8847C161.883 10.6836 161.433 10.5824 160.98 10.5892C160.538 10.5876 160.106 10.723 159.742 10.9774C159.361 11.2434 159.052 11.6024 158.844 12.0212C158.62 12.4575 158.505 12.9425 158.508 13.4341V18.7003H156.96L156.956 9.30263Z" stroke="white" stroke-width="0.276528" stroke-miterlimit="10"/>
</g>
<path d="M28.7783 19.8701C28.754 18.8582 28.6413 17.8503 28.4417 16.858H14.7246V22.547H22.4208C22.2874 23.439 21.9725 24.2941 21.4956 25.0595C21.0187 25.825 20.3899 26.4845 19.6482 26.9974V30.7039H24.4087C27.1808 28.1404 28.7759 24.3508 28.7759 19.8696" fill="white"/>
<path d="M14.6824 34.2575C18.6442 34.2575 21.9804 32.9519 24.4116 30.7034L19.6511 26.9969C18.5157 27.727 17.2283 28.1876 15.8874 28.3434C14.5466 28.4993 13.1878 28.3463 11.9152 27.8961C10.6426 27.4459 9.48988 26.7105 8.54527 25.7462C7.60066 24.7819 6.88922 23.6142 6.46542 22.3326H1.56641V26.1449C2.78422 28.5812 4.65614 30.6305 6.9726 32.0633C9.28907 33.4961 11.9586 34.2558 14.6824 34.2575Z" fill="white"/>
<path d="M6.46135 22.335C5.85318 20.5184 5.85318 18.553 6.46135 16.7364V12.9251H1.56425C0.535616 14.9773 0 17.2413 0 19.5369C0 21.8325 0.535616 24.0965 1.56425 26.1488L6.46135 22.335Z" fill="white"/>
<path d="M14.6824 10.6675C16.7708 10.6341 18.7881 11.4251 20.2974 12.8689L24.5045 8.64883C21.8513 6.14551 18.3299 4.76996 14.6824 4.81204C11.9587 4.81357 9.28924 5.57317 6.97278 7.00579C4.65633 8.43841 2.78435 10.4875 1.56641 12.9237L6.4635 16.7355C7.02626 14.9912 8.12205 13.4675 9.5965 12.3789C11.071 11.2903 12.8498 10.6918 14.6824 10.6675Z" fill="white"/>
</g>
</g>
<defs>
<clipPath id="clip0_84_279">
<rect width="101.165" height="42.4239" fill="white"/>
</clipPath>
<clipPath id="clip1_84_279">
<rect width="48.0918" height="13.2253" fill="white" transform="translate(36.0684 24.0474)"/>
</clipPath>
<clipPath id="clip2_84_279">
<rect width="64.924" height="19.2367" fill="white" transform="translate(36.0684 3.60889)"/>
</clipPath>
</defs>
</svg>
