<svg width="108" height="44" viewBox="0 0 108 44" fill="none" xmlns="http://www.w3.org/2000/svg">
<g opacity="0.7">
<path d="M43.3984 6.96582H46.746L52.3906 17.2182L58.0355 6.96582H61.3174V23.7903H58.6262V10.909L53.7033 19.847H51.1435L46.155 10.909V23.7903H43.4641V6.96582H43.3984Z" fill="#E8E8E8"/>
<path d="M70.0474 24.1187C68.8003 24.1187 67.6844 23.8558 66.7655 23.2643C65.7809 22.7385 65.0587 21.9499 64.5336 20.9641C64.0085 19.9783 63.7461 18.8611 63.7461 17.5467C63.7461 16.2322 64.0085 15.115 64.5336 14.1292C65.0587 13.1434 65.7809 12.3547 66.6998 11.829C67.6187 11.2375 68.6688 10.9746 69.916 10.9746C71.0974 10.9746 72.1478 11.2375 73.0011 11.829C73.8543 12.4205 74.5107 13.2091 74.9702 14.1949C75.4296 15.1807 75.6919 16.4294 75.6919 17.7438V18.4667H66.5027C66.6996 19.5182 67.0937 20.3069 67.75 20.8984C68.4064 21.4899 69.2596 21.7527 70.2441 21.7527C71.0318 21.7527 71.7539 21.6213 72.3447 21.4241C72.9354 21.1613 73.4605 20.8326 73.9856 20.3069L75.4295 22.0813C73.9198 23.4615 72.1478 24.1187 70.0474 24.1187ZM72.0165 14.1292C71.4258 13.5377 70.7035 13.2748 69.7846 13.2748C68.8656 13.2748 68.1437 13.6034 67.5529 14.1949C66.9622 14.7864 66.5686 15.575 66.4373 16.5608H73.0664C72.9352 15.5093 72.6072 14.7207 72.0165 14.1292Z" fill="#E8E8E8"/>
<path d="M78.9085 13.4715H76.4141V11.237H78.9085V7.55664H81.534V11.237H85.3408V13.4715H81.534V19.1234C81.534 20.0435 81.6651 20.7007 81.9933 21.1608C82.3214 21.5551 82.8465 21.7522 83.6342 21.7522C83.9624 21.7522 84.2908 21.7523 84.4877 21.6865C84.7502 21.6865 85.0126 21.6208 85.2751 21.5551V23.7239C84.9469 23.7896 84.6188 23.8553 84.2906 23.921C83.8967 23.9867 83.503 23.9868 83.1092 23.9868C80.2868 23.9868 78.8428 22.4094 78.8428 19.3206L78.9085 13.4715Z" fill="#E8E8E8"/>
<path d="M98.9282 23.7899H96.368V22.0155C95.9086 22.6727 95.318 23.1984 94.596 23.527C93.874 23.8556 93.0862 24.0528 92.1673 24.0528C91.0515 24.0528 90.0669 23.7899 89.2136 23.1984C88.3603 22.6069 87.7039 21.884 87.1788 20.8982C86.7193 19.9124 86.457 18.7951 86.457 17.4807C86.457 16.232 86.7193 15.0491 87.1788 14.0633C87.7039 13.0775 88.3603 12.2888 89.2136 11.763C90.0669 11.1716 91.1172 10.9087 92.233 10.9087C93.0863 10.9087 93.8739 11.1058 94.5303 11.4344C95.1867 11.763 95.7775 12.2231 96.237 12.8146V11.2373H98.7968L98.9282 23.7899ZM96.3027 15.6406C96.0401 14.9176 95.5807 14.3919 94.9899 13.9319C94.3992 13.5375 93.677 13.3404 92.8894 13.3404C91.7735 13.3404 90.8546 13.7347 90.1982 14.4576C89.5418 15.1805 89.2136 16.232 89.2136 17.4807C89.2136 18.7951 89.5418 19.781 90.1982 20.5696C90.8546 21.2925 91.7078 21.6869 92.8237 21.6869C93.6113 21.6869 94.3335 21.4897 94.9899 21.0297C95.6463 20.6353 96.1055 20.0438 96.368 19.3209L96.3027 15.6406Z" fill="#E8E8E8"/>
<path d="M9.13672 29.0966H12.298C13.1711 29.0966 13.8335 29.2774 14.2851 29.6392C14.7367 30.0009 14.9475 30.4833 14.9475 31.1163C14.9475 31.9604 14.526 32.5331 13.7131 32.8346C14.7969 33.1059 15.3087 33.739 15.3087 34.7337C15.3087 35.3969 15.0679 35.9094 14.5862 36.3013C14.1044 36.6631 13.412 36.8741 12.5389 36.8741H9.13672V29.0966ZM12.1474 32.4126C13.1711 32.4126 13.6829 32.0508 13.6829 31.2972C13.6829 30.9354 13.5625 30.6641 13.3216 30.4833C13.0807 30.3024 12.7195 30.212 12.2077 30.212H10.3711V32.4126H12.1474ZM12.5088 35.7285C13.5324 35.7285 14.0443 35.3367 14.0443 34.583C14.0443 34.2213 13.9238 33.95 13.6829 33.7691C13.4421 33.5882 13.0205 33.4978 12.4184 33.4978H10.3711V35.7285H12.5088Z" fill="#E8E8E8"/>
<path d="M21.2706 36.8143H20.0963V36.0004C19.6447 36.6335 19.0426 36.9651 18.2599 36.9651C17.5975 36.9651 17.0555 36.754 16.6942 36.332C16.3329 35.91 16.1523 35.3071 16.1523 34.4931V31.0867H17.3566V34.3726C17.3566 34.9152 17.4469 35.3071 17.6276 35.5482C17.8082 35.7894 18.1093 35.9401 18.5007 35.9401C18.8318 35.9401 19.163 35.8497 19.434 35.6688C19.705 35.4879 19.9158 35.2468 20.0663 34.9152V31.1169H21.2706V36.8143Z" fill="#E8E8E8"/>
<path d="M26.5398 36.4826C26.1183 36.8142 25.5462 36.9649 24.8236 36.9649C24.2215 36.9649 23.6796 36.8443 23.228 36.6333C22.7764 36.4223 22.4451 36.1208 22.2344 35.7591L23.0473 35.0657C23.228 35.337 23.4387 35.5179 23.7397 35.6686C24.0408 35.8194 24.4021 35.8797 24.7935 35.8797C25.5462 35.8797 25.9377 35.6686 25.9377 35.2165C25.9377 35.0356 25.8774 34.8849 25.757 34.7643C25.6366 34.6437 25.4258 34.5533 25.1247 34.5231L24.0107 34.3423C23.4989 34.2518 23.0773 34.071 22.8064 33.7996C22.5354 33.5283 22.3849 33.1666 22.3849 32.7144C22.3849 32.1718 22.5957 31.7498 23.0172 31.4182C23.4387 31.0866 24.0108 30.9358 24.7334 30.9358C25.2452 30.9358 25.7268 31.0564 26.1483 31.2674C26.5698 31.4785 26.8709 31.7498 27.0817 32.1115L26.2387 32.7446C26.0882 32.5034 25.8774 32.3225 25.6064 32.2019C25.3355 32.0814 25.0042 31.9909 24.643 31.9909C24.3118 31.9909 24.0408 32.0512 23.8601 32.1718C23.6795 32.2924 23.5892 32.4431 23.5892 32.6541C23.5892 32.835 23.6494 32.9857 23.7699 33.0762C23.8903 33.1666 24.0709 33.257 24.3419 33.2872L25.5763 33.4982C26.0881 33.5886 26.4494 33.7695 26.7203 34.0709C26.9913 34.3724 27.1118 34.7342 27.1118 35.1562C27.172 35.6988 26.9613 36.151 26.5398 36.4826Z" fill="#E8E8E8"/>
<path d="M28.2556 30.0924C28.105 29.9417 28.0449 29.7608 28.0449 29.5498C28.0449 29.3087 28.105 29.1278 28.2556 29.0072C28.4061 28.8565 28.5867 28.7962 28.8276 28.7962C29.0685 28.7962 29.2492 28.8565 29.3997 29.0072C29.5503 29.1579 29.6104 29.3388 29.6104 29.5498C29.6104 29.7608 29.5503 29.9719 29.3997 30.0924C29.2492 30.213 29.0685 30.3035 28.8276 30.3035C28.5867 30.3035 28.4061 30.2432 28.2556 30.0924ZM28.2254 31.0873H29.4297V36.845H28.2254V31.0873Z" fill="#E8E8E8"/>
<path d="M30.7528 31.0872H31.9269V31.9313C32.3786 31.2681 32.9806 30.9666 33.7935 30.9666C34.486 30.9666 34.9979 31.1776 35.3591 31.5997C35.7204 32.0217 35.901 32.6246 35.901 33.4385V36.8449H34.6967V33.5591C34.6967 33.0165 34.6064 32.6246 34.3957 32.3834C34.215 32.1423 33.9139 31.9916 33.4924 31.9916C33.1311 31.9916 32.8302 32.082 32.5592 32.2629C32.2883 32.4437 32.0775 32.715 31.9269 33.0466V36.8449H30.7227V31.0872H30.7528Z" fill="#E8E8E8"/>
<path d="M39.7263 36.9649C39.1542 36.9649 38.6424 36.8443 38.2209 36.573C37.7693 36.3318 37.4381 35.9701 37.1973 35.5179C36.9564 35.0657 36.8359 34.5533 36.8359 33.9504C36.8359 33.3475 36.9564 32.835 37.1973 32.3828C37.4381 31.9306 37.7693 31.5689 38.1908 31.3277C38.6123 31.0564 39.094 30.9358 39.666 30.9358C40.2079 30.9358 40.6897 31.0564 41.0811 31.3277C41.4725 31.599 41.7736 31.9608 41.9843 32.413C42.1951 32.8651 42.3155 33.4379 42.3155 34.0408V34.3724H38.1005C38.1908 34.8547 38.3714 35.2165 38.6725 35.4878C38.9736 35.7591 39.3649 35.8797 39.8165 35.8797C40.1778 35.8797 40.5091 35.8194 40.78 35.7289C41.051 35.6084 41.2918 35.4576 41.5327 35.2165L42.1951 36.0304C41.5027 36.6634 40.6897 36.9649 39.7263 36.9649ZM40.6596 32.3828C40.3887 32.1115 40.0575 31.9909 39.636 31.9909C39.2145 31.9909 38.8832 32.1416 38.6122 32.413C38.3413 32.6843 38.1607 33.046 38.1005 33.4982H41.1414C41.051 33.0159 40.9005 32.6541 40.6596 32.3828Z" fill="#E8E8E8"/>
<path d="M47.192 36.4826C46.7705 36.8142 46.1985 36.9649 45.476 36.9649C44.8738 36.9649 44.3318 36.8443 43.8802 36.6333C43.4286 36.4223 43.0975 36.1208 42.8867 35.7591L43.6997 35.0657C43.8803 35.337 44.091 35.5179 44.3921 35.6686C44.6932 35.8194 45.0544 35.8797 45.4458 35.8797C46.1985 35.8797 46.5899 35.6686 46.5899 35.2165C46.5899 35.0356 46.5298 34.8849 46.4093 34.7643C46.2889 34.6437 46.0781 34.5533 45.777 34.5231L44.663 34.3423C44.1512 34.2518 43.7297 34.071 43.4587 33.7997C43.1878 33.5283 43.0373 33.1666 43.0373 32.7144C43.0373 32.1718 43.248 31.7498 43.6695 31.4182C44.091 31.0866 44.663 30.9359 45.3856 30.9359C45.8974 30.9359 46.3792 31.0564 46.8007 31.2674C47.2222 31.4785 47.5233 31.7498 47.734 32.1115L46.8909 32.7446C46.7404 32.5034 46.5298 32.3225 46.2588 32.2019C45.9878 32.0814 45.6566 31.9909 45.2953 31.9909C44.9641 31.9909 44.6931 32.0512 44.5125 32.1718C44.3318 32.2924 44.2415 32.4431 44.2415 32.6541C44.2415 32.835 44.3018 32.9857 44.4222 33.0762C44.5426 33.1666 44.7233 33.257 44.9942 33.2872L46.2287 33.4982C46.7405 33.5886 47.1017 33.7695 47.3727 34.0709C47.6436 34.3724 47.7642 34.7342 47.7642 35.1562C47.8545 35.6988 47.6436 36.151 47.192 36.4826Z" fill="#E8E8E8"/>
<path d="M52.8209 36.4826C52.3994 36.8142 51.8273 36.9649 51.1047 36.9649C50.5026 36.9649 49.9607 36.8443 49.5091 36.6333C49.0575 36.4223 48.7264 36.1208 48.5156 35.7591L49.3284 35.0657C49.5091 35.337 49.7199 35.5179 50.021 35.6686C50.3221 35.8194 50.6833 35.8797 51.0747 35.8797C51.8274 35.8797 52.2188 35.6686 52.2188 35.2165C52.2188 35.0356 52.1585 34.8849 52.0381 34.7643C51.9177 34.6437 51.7069 34.5533 51.4058 34.5231L50.2919 34.3423C49.7801 34.2518 49.3586 34.071 49.0876 33.7996C48.8167 33.5283 48.6662 33.1666 48.6662 32.7144C48.6662 32.1718 48.8768 31.7498 49.2983 31.4182C49.7198 31.0866 50.2919 30.9358 51.0145 30.9358C51.5263 30.9358 52.0081 31.0564 52.4296 31.2674C52.8511 31.4785 53.152 31.7498 53.3628 32.1115L52.5198 32.7446C52.3693 32.5034 52.1585 32.3225 51.8875 32.2019C51.6166 32.0814 51.2855 31.9909 50.9242 31.9909C50.593 31.9909 50.322 32.0512 50.1414 32.1718C49.9607 32.2924 49.8705 32.4431 49.8705 32.6541C49.8705 32.835 49.9305 32.9857 50.051 33.0762C50.1714 33.1666 50.3522 33.257 50.6231 33.2872L51.8574 33.4982C52.3692 33.5886 52.7306 33.7695 53.0016 34.0709C53.2725 34.3724 53.3929 34.7342 53.3929 35.1562C53.4531 35.6988 53.2424 36.151 52.8209 36.4826Z" fill="#E8E8E8"/>
<path d="M56.0137 29.0966H58.934C59.9275 29.0966 60.6802 29.3076 61.2222 29.7598C61.7641 30.212 62.0351 30.845 62.0351 31.6891C62.0351 32.5332 61.7641 33.1662 61.2222 33.6184C60.6802 34.0706 59.9275 34.2816 58.934 34.2816H57.2781V36.8138H56.0137V29.0966ZM58.8437 33.1662C59.476 33.1662 59.9576 33.0456 60.2888 32.8044C60.5899 32.5633 60.7404 32.2015 60.7404 31.7192C60.7404 31.2068 60.5899 30.845 60.2888 30.6038C59.9877 30.3627 59.5061 30.2421 58.8739 30.2421H57.3082V33.1662H58.8437Z" fill="#E8E8E8"/>
<path d="M68.1149 36.8145H66.9408V36.0006C66.73 36.3021 66.4591 36.5432 66.1279 36.694C65.7968 36.8447 65.4354 36.9351 65.0139 36.9351C64.5021 36.9351 64.0505 36.8145 63.6591 36.5432C63.2677 36.2719 62.9666 35.9403 62.7257 35.4881C62.515 35.036 62.3945 34.5235 62.3945 33.9206C62.3945 33.3478 62.515 32.8052 62.7257 32.353C62.9666 31.9009 63.2677 31.5391 63.6591 31.2979C64.0505 31.0266 64.5322 30.9061 65.0441 30.9061C65.4355 30.9061 65.7967 30.9965 66.0978 31.1472C66.3989 31.2979 66.6699 31.509 66.8806 31.7803V31.0568H68.0548L68.1149 36.8145ZM66.9106 33.0765C66.7902 32.7449 66.5794 32.5038 66.3085 32.2928C66.0375 32.1119 65.7064 32.0214 65.3451 32.0214C64.8333 32.0214 64.4118 32.2023 64.1107 32.5339C63.8096 32.8655 63.6591 33.3478 63.6591 33.9206C63.6591 34.5235 63.8096 34.9757 64.1107 35.3374C64.4118 35.669 64.8032 35.8499 65.315 35.8499C65.6763 35.8499 66.0074 35.7595 66.3085 35.5484C66.6095 35.3676 66.8203 35.0963 66.9408 34.7647L66.9106 33.0765Z" fill="#E8E8E8"/>
<path d="M69.3203 31.0875H70.4946V31.9617C70.8258 31.3286 71.3074 31.0272 71.9397 31.0272C72.0601 31.0272 72.1806 31.0271 72.301 31.0573V32.1727C72.1806 32.1727 72.0601 32.1425 71.9397 32.1425C71.2472 32.1425 70.7655 32.4741 70.5547 33.1675V36.8452H69.3504L69.3203 31.0875Z" fill="#E8E8E8"/>
<path d="M73.8071 32.083H72.9941V31.0581H73.8071V29.3699H75.0114V31.0581H76.7575V32.083H75.0114V34.6755C75.0114 35.0975 75.0715 35.399 75.222 35.61C75.3726 35.821 75.6134 35.8813 75.9747 35.8813C76.1253 35.8813 76.2759 35.8813 76.3662 35.8512C76.4866 35.8512 76.607 35.821 76.7274 35.7909V36.7857C76.5769 36.8158 76.4263 36.8459 76.2758 36.8761C76.0952 36.9062 75.9146 36.9062 75.7339 36.9062C74.4393 36.9062 73.777 36.1827 73.777 34.7659L73.8071 32.083Z" fill="#E8E8E8"/>
<path d="M77.6903 31.0872H78.8644V31.9313C79.3161 31.2681 79.9183 30.9666 80.7312 30.9666C81.4236 30.9666 81.9354 31.1776 82.2966 31.5997C82.6579 32.0217 82.8387 32.6246 82.8387 33.4385V36.8449H81.6344V33.5591C81.6344 33.0165 81.5441 32.6246 81.3333 32.3834C81.1527 32.1423 80.8516 31.9916 80.4301 31.9916C80.0688 31.9916 79.7677 32.082 79.4967 32.2629C79.2258 32.4437 79.015 32.715 78.8644 33.0466V36.8449H77.6602V31.0872H77.6903Z" fill="#E8E8E8"/>
<path d="M86.6931 36.9649C86.121 36.9649 85.6092 36.8443 85.1877 36.573C84.7361 36.3318 84.4049 35.9701 84.1641 35.5179C83.9232 35.0657 83.8027 34.5533 83.8027 33.9504C83.8027 33.3475 83.9232 32.835 84.1641 32.3828C84.4049 31.9306 84.7361 31.5689 85.1576 31.3277C85.5791 31.0564 86.0607 30.9359 86.6328 30.9359C87.1747 30.9359 87.6565 31.0564 88.0479 31.3277C88.4393 31.599 88.7404 31.9608 88.9511 32.413C89.1619 32.8651 89.2823 33.4379 89.2823 34.0408V34.3724H85.0673C85.1576 34.8547 85.3382 35.2165 85.6393 35.4878C85.9404 35.7591 86.3317 35.8797 86.7833 35.8797C87.1446 35.8797 87.4758 35.8194 87.7468 35.7289C88.0178 35.6084 88.2586 35.4576 88.4995 35.2165L89.1619 36.0304C88.4393 36.6634 87.6565 36.9649 86.6931 36.9649ZM87.5963 32.3828C87.3253 32.1115 86.9942 31.9909 86.5727 31.9909C86.1512 31.9909 85.82 32.1417 85.549 32.413C85.2781 32.6843 85.0974 33.046 85.0372 33.4982H88.078C88.0178 33.0159 87.8672 32.6541 87.5963 32.3828Z" fill="#E8E8E8"/>
<path d="M90.2448 31.0868H91.4191V31.961C91.7804 31.328 92.2922 30.9964 92.9245 30.9964C93.1352 30.9964 93.3158 31.0265 93.4362 31.0567V32.1721C93.2556 32.1419 93.075 32.1419 92.8944 32.1419C92.1718 32.1419 91.6901 32.4735 91.4191 33.1066V36.8446H90.2148L90.2448 31.0868Z" fill="#E8E8E8"/>
<path d="M98.1022 36.4826C97.6807 36.8142 97.1087 36.9649 96.3861 36.9649C95.784 36.9649 95.242 36.8443 94.7904 36.6333C94.3387 36.4223 94.0076 36.1208 93.7969 35.7591L94.6097 35.0657C94.7903 35.337 95.0012 35.5179 95.3022 35.6686C95.6033 35.8194 95.9646 35.8797 96.356 35.8797C97.1087 35.8797 97.5 35.6686 97.5 35.2165C97.5 35.0356 97.4398 34.8849 97.3193 34.7643C97.1989 34.6437 96.9883 34.5533 96.6872 34.5231L95.5732 34.3423C95.0614 34.2518 94.6398 34.071 94.3689 33.7996C94.0979 33.5283 93.9474 33.1666 93.9474 32.7144C93.9474 32.1718 94.1582 31.7498 94.5797 31.4182C95.0012 31.0866 95.5731 30.9358 96.2957 30.9358C96.8075 30.9358 97.2893 31.0564 97.7108 31.2674C98.1323 31.4785 98.4334 31.7498 98.6442 32.1115L97.8011 32.7446C97.6505 32.5034 97.4398 32.3225 97.1688 32.2019C96.8978 32.0814 96.5667 31.9909 96.2055 31.9909C95.8743 31.9909 95.6033 32.0512 95.4226 32.1718C95.242 32.2924 95.1517 32.4431 95.1517 32.6541C95.1517 32.835 95.2119 32.9857 95.3324 33.0762C95.4528 33.1666 95.6334 33.257 95.9044 33.2872L97.1388 33.4982C97.6506 33.5886 98.0119 33.7695 98.2828 34.0709C98.5538 34.3724 98.6742 34.7342 98.6742 35.1562C98.7344 35.6988 98.5237 36.151 98.1022 36.4826Z" fill="#E8E8E8"/>
<g clip-path="url(#clip0_84_298)">
<path d="M17.3174 5.63035C12.8497 5.63035 9.42773 11.4523 9.42773 17.6087C9.42773 21.4626 11.2893 23.8966 14.4101 23.8966C16.6549 23.8966 18.2701 22.8386 21.1446 17.8115C21.1446 17.8115 22.3436 15.6954 23.1649 14.2372L24.8731 11.3427C26.3241 9.1005 27.5231 7.98216 28.9467 7.98216C31.9032 7.98216 34.2685 12.3404 34.2685 17.6964C34.2685 19.7357 33.6005 20.9198 32.2153 20.9198C30.8903 20.9198 30.2552 20.0427 27.7367 15.986L25.4207 18.0089C28.0433 22.4055 29.5051 23.8966 32.1551 23.8966C35.1938 23.8966 36.8856 21.4242 36.8856 17.4881C36.8856 11.0357 33.387 5.61938 29.1328 5.61938C26.8825 5.61938 25.1195 7.31883 23.5263 9.47328L21.7578 12.0718C20.0112 14.758 18.949 16.441 18.949 16.441C16.6221 20.0975 15.8172 20.9143 14.5196 20.9143C13.1837 20.9143 12.3953 19.7412 12.3953 17.6525C12.3953 13.1792 14.6237 8.60711 17.2791 8.60711L17.3174 5.63035Z" fill="#E8E8E8"/>
<path d="M23.6741 11.4958L21.7578 12.0879C20.0112 14.7741 18.949 16.4571 18.949 16.4571C16.6221 20.1136 15.8172 20.9305 14.5196 20.9305C13.1837 20.9305 12.3953 19.7573 12.3953 17.6686C12.3953 13.1953 14.6237 8.62323 17.2791 8.62323L17.3174 5.6355C12.8497 5.63002 9.42773 11.452 9.42773 17.6083C9.42773 21.4622 11.2893 23.8963 14.4101 23.8963C16.6549 23.8963 18.2701 22.8382 21.1446 17.8112C21.1446 17.8112 22.3436 15.6951 23.1649 14.2369L23.6741 11.4958Z" fill="#E8E8E8"/>
<path d="M25.4189 18.0151C28.0415 22.4117 29.5034 23.8974 32.1533 23.8974L32.2136 20.9206C30.8886 20.9206 30.2535 20.0489 27.7349 15.9922C25.6215 12.5495 24.5429 10.8281 23.5245 9.485C21.3344 6.69462 19.5057 5.6311 17.3157 5.6311L17.2773 8.61883C18.7173 8.61883 19.9164 9.4521 21.756 12.089C22.528 13.1744 24.1103 15.7565 25.4189 18.0151Z" fill="#E8E8E8"/>
<path d="M23.5207 9.485C21.3307 6.69462 19.502 5.6311 17.3064 5.6311C15.1437 5.6311 13.2274 6.99614 11.8203 9.10125L13.9337 11.2667C14.8152 9.67139 16.0033 8.62431 17.279 8.62431C18.719 8.62431 19.9071 9.44662 21.7468 12.0835L23.5207 9.485Z" fill="#E8E8E8"/>
<path d="M26.875 20.317C28.6763 22.9429 30.0342 23.8968 32.153 23.8968C35.1918 23.8968 36.8836 21.4244 36.8836 17.4883L34.2665 17.6966C34.2665 19.7359 33.5985 20.9201 32.2133 20.9201C31.1456 20.9201 30.5215 20.3499 28.9939 17.9926L26.875 20.317Z" fill="#E8E8E8"/>
</g>
</g>
<defs>
<clipPath id="clip0_84_298">
<rect width="28.0328" height="28.0682" fill="white" transform="translate(9.13672 0.728516)"/>
</clipPath>
</defs>
</svg>
