<svg width="155" height="59" viewBox="0 0 155 59" fill="none" xmlns="http://www.w3.org/2000/svg">
<g clip-path="url(#clip0_84_693)">
<path d="M54.4478 29.4659L47.399 1.59191H51.1931L54.4882 15.6958C55.3109 19.1688 56.0526 22.6418 56.5471 25.3299H56.628C57.0821 22.5606 57.9452 19.25 58.8937 15.6507L62.6024 1.5874H66.3515L69.732 15.7319C70.5142 19.0425 71.2559 22.3486 71.6695 25.2848H71.7504C72.3258 22.2223 73.1125 19.1237 73.9756 15.6507L77.6438 1.5874H81.312L73.4407 29.4614H69.6915L66.1897 14.9471C65.322 11.3929 64.7466 8.65965 64.378 5.84969H64.2971C63.8026 8.61905 63.1823 11.3523 62.1528 14.9471L58.1969 29.4614H54.4478V29.4659Z" fill="#FAB62E"/>
<path d="M85.3219 20.1206C85.4028 25.0414 88.5361 27.0665 92.1639 27.0665C94.7622 27.0665 96.3266 26.611 97.6887 26.0337L98.309 28.6407C97.0323 29.218 94.8476 29.881 91.6739 29.881C85.5332 29.881 81.865 25.8262 81.865 19.7913C81.865 13.7565 85.4118 8.99805 91.2198 8.99805C97.7336 8.99805 99.4643 14.7488 99.4643 18.4292C99.4643 19.1734 99.3834 19.7507 99.343 20.1251H85.3219V20.1206ZM95.9534 17.5136C95.9939 15.1998 95.0049 11.6005 90.9231 11.6005C87.2549 11.6005 85.6456 14.9923 85.3579 17.5136H95.9534Z" fill="#FAB62E"/>
<path d="M103.784 29.466C103.865 28.0993 103.951 26.0742 103.951 24.2971V0.103516H107.538V12.6739H107.619C108.896 10.4413 111.206 8.99343 114.42 8.99343C119.365 8.99343 122.872 13.1294 122.831 19.2094C122.831 26.3628 118.34 29.9215 113.885 29.9215C110.999 29.9215 108.693 28.8029 107.21 26.1599H107.084L106.918 29.466H103.784ZM107.538 21.442C107.538 21.8976 107.619 22.3531 107.704 22.7636C108.406 25.2848 110.505 27.0213 113.144 27.0213C116.938 27.0213 119.203 23.9182 119.203 19.3312C119.203 15.3215 117.145 11.8891 113.27 11.8891C110.797 11.8891 108.486 13.585 107.745 16.3543C107.664 16.7693 107.538 17.2654 107.538 17.8428V21.442Z" fill="#FAB62E"/>
<path d="M9.3998 57.8545C14.5912 57.8545 18.7996 53.632 18.7996 48.4233C18.7996 43.2147 14.5912 38.9922 9.3998 38.9922C4.20843 38.9922 0 43.2147 0 48.4233C0 53.632 4.20843 57.8545 9.3998 57.8545Z" fill="url(#paint0_linear_84_693)"/>
<path d="M40.4763 31.5725C40.4763 31.5725 40.4808 31.5725 40.4808 31.568C40.4718 31.568 40.4673 31.568 40.4583 31.568C39.9278 31.4958 38.5208 31.4146 38.4893 31.4101C36.1292 31.2478 34.5154 29.8044 34.6458 27.5538C34.6862 26.8366 35.5269 24.6085 35.6078 24.4236C35.6348 24.3785 35.6482 24.3289 35.6752 24.2838C35.6707 24.2838 35.6707 24.2883 35.6662 24.2883C36.6013 22.1549 37.1272 19.796 37.1272 17.3153C37.1362 7.75331 29.4087 0 19.874 0C10.3394 0 2.61633 7.75331 2.61633 17.3198C2.61633 26.8862 10.3439 34.6396 19.8785 34.6396C20.881 34.6396 22.5757 34.4366 22.9668 34.4321C24.9763 34.4185 26.7699 35.9701 26.6305 38.0449C26.5586 39.0913 26.0417 40.3136 26.0372 40.3226C26.0372 40.3226 26.0372 40.3226 26.0417 40.3226C25.664 41.3149 25.1471 43.0559 25.1471 45.2299C25.1471 52.8343 31.2922 59 38.8714 59C46.4506 59 52.5957 52.8343 52.5957 45.2299C52.5913 37.9366 46.8147 32.425 40.4763 31.5725Z" fill="#F6F6F6"/>
<path d="M61.2628 32.4746H64.5085V54.9678H75.2524V57.701H61.2628V32.4746Z" fill="#F6F6F6"/>
<path d="M94.5735 48.4908C94.5735 55.1887 89.9478 58.1114 85.5828 58.1114C80.6963 58.1114 76.9292 54.5166 76.9292 48.793C76.9292 42.731 80.8851 39.1724 85.8795 39.1724C91.0671 39.1724 94.5735 42.952 94.5735 48.4908ZM80.2468 48.6802C80.2468 52.6448 82.5214 55.6397 85.7311 55.6397C88.8644 55.6397 91.2155 52.6809 91.2155 48.6035C91.2155 45.5365 89.687 41.644 85.8075 41.644C81.928 41.644 80.2468 45.2343 80.2468 48.6802Z" fill="#F6F6F6"/>
<path d="M98.7137 45.2344C98.7137 43.101 98.6777 41.2698 98.5653 39.5829H101.438L101.55 43.1371H101.699C102.521 40.706 104.495 39.168 106.697 39.168C107.071 39.168 107.331 39.2041 107.628 39.2807V42.3884C107.291 42.3117 106.958 42.2756 106.509 42.2756C104.198 42.2756 102.553 44.0346 102.108 46.5063C102.031 46.9574 101.959 47.4806 101.959 48.0398V57.6965H98.7137V45.2344Z" fill="#F6F6F6"/>
<path d="M112.366 49.2395C112.442 53.6912 115.275 55.5269 118.556 55.5269C120.907 55.5269 122.323 55.1165 123.555 54.5933L124.112 56.9522C122.957 57.4754 120.979 58.0753 118.107 58.0753C112.55 58.0753 109.228 54.4084 109.228 48.9418C109.228 43.4798 112.438 39.1724 117.698 39.1724C123.591 39.1724 125.16 44.3728 125.16 47.706C125.16 48.378 125.083 48.9057 125.047 49.2395H112.366ZM121.991 46.8851C122.027 44.7878 121.132 41.5313 117.441 41.5313C114.119 41.5313 112.667 44.5983 112.406 46.8851H121.991Z" fill="#F6F6F6"/>
<path d="M129.224 44.4901C129.224 42.6183 129.188 41.0848 129.075 39.5873H131.948L132.096 42.5055H132.209C133.216 40.7826 134.892 39.1724 137.877 39.1724C140.341 39.1724 142.206 40.6698 142.988 42.8032H143.065C143.622 41.7929 144.333 41.0081 145.079 40.4443C146.162 39.6189 147.353 39.1724 149.071 39.1724C151.458 39.1724 155 40.7465 155 47.0339V57.7009H151.79V47.4444C151.79 43.9624 150.523 41.8696 147.875 41.8696C146.009 41.8696 144.557 43.2542 143.995 44.8644C143.847 45.3155 143.735 45.9108 143.735 46.5107V57.7009H140.525V46.849C140.525 43.9669 139.257 41.8696 136.758 41.8696C134.708 41.8696 133.216 43.5158 132.694 45.1621C132.505 45.6492 132.433 46.2085 132.433 46.7723V57.7009H129.224V44.4901Z" fill="#F6F6F6"/>
</g>
<defs>
<linearGradient id="paint0_linear_84_693" x1="14.1548" y1="40.1609" x2="4.63112" y2="56.6017" gradientUnits="userSpaceOnUse">
<stop stop-color="#F0B034"/>
<stop offset="0.3813" stop-color="#F0A534"/>
<stop offset="0.6685" stop-color="#F18F33"/>
<stop offset="0.8876" stop-color="#E96032"/>
<stop offset="1" stop-color="#E4332E"/>
</linearGradient>
<clipPath id="clip0_84_693">
<rect width="155" height="59" fill="white"/>
</clipPath>
</defs>
</svg>
