<svg width="28" height="28" viewBox="0 0 28 28" fill="none" xmlns="http://www.w3.org/2000/svg">
<rect width="26.6665" height="26.6635" transform="translate(0.666504 0.667969)" fill="#191919"/>
<g clip-path="url(#clip0_84_733)">
<path d="M19.8132 7.70068C19.5455 7.70068 19.3276 7.91854 19.3276 8.18623C19.3276 8.45393 19.5455 8.67178 19.8132 8.67178C20.0809 8.67178 20.2987 8.45396 20.2987 8.18623C20.2987 7.9185 20.0809 7.70068 19.8132 7.70068Z" fill="white"/>
<path d="M18.5168 4H9.48221C6.45904 4 3.99951 6.45953 3.99951 9.48273V18.5173C3.99951 21.5405 6.45904 24 9.48221 24H18.5168C21.54 24 23.9995 21.5405 23.9995 18.5173V9.48273C23.9995 6.45953 21.54 4 18.5168 4ZM13.9995 19.4856C10.9747 19.4856 8.51393 17.0248 8.51393 14C8.51393 10.9752 10.9747 8.51445 13.9995 8.51445C17.0243 8.51445 19.4851 10.9752 19.4851 14C19.4851 17.0248 17.0243 19.4856 13.9995 19.4856ZM19.8132 9.85297C18.8942 9.85297 18.1466 9.10531 18.1466 8.18633C18.1466 7.26734 18.8942 6.51965 19.8132 6.51965C20.7322 6.51965 21.4799 7.2673 21.4799 8.18629C21.4799 9.10527 20.7322 9.85297 19.8132 9.85297Z" fill="white"/>
</g>
<defs>
<clipPath id="clip0_84_733">
<rect width="20" height="20" fill="white" transform="translate(3.99951 4)"/>
</clipPath>
</defs>
</svg>
