<svg width="28" height="28" viewBox="0 0 28 28" fill="none" xmlns="http://www.w3.org/2000/svg">
<path d="M8.19369 6.55664C6.99066 6.55664 6.2041 7.34652 6.2041 8.3847C6.2041 9.39996 6.96723 10.2124 8.14753 10.2124H8.17036C9.39691 10.2124 10.1602 9.39996 10.1602 8.3847C10.1373 7.34652 9.39691 6.55664 8.19369 6.55664Z" fill="white"/>
<path d="M6.41211 11.6543H9.92905V22.234H6.41211V11.6543Z" fill="white"/>
<path d="M18.5615 11.4082C16.6643 11.4082 15.392 13.1908 15.392 13.1908V11.6565H11.875V22.2362H15.3918V16.3281C15.3918 16.0118 15.4148 15.696 15.5077 15.4698C15.7619 14.8382 16.3405 14.1839 17.3121 14.1839C18.5847 14.1839 19.0937 15.1541 19.0937 16.5764V22.2362H22.6104V16.17C22.6104 12.9204 20.8752 11.4082 18.5615 11.4082Z" fill="white"/>
</svg>
