<svg width="18" height="12" viewBox="0 0 18 12" fill="none" xmlns="http://www.w3.org/2000/svg">
<path d="M10.5915 6.36213L17.0341 0.0908468C16.8918 0.0327355 16.7365 0.00012207 16.5734 0.00012207H1.2166C1.05353 0.00012207 0.898173 0.0327355 0.755859 0.0908468L7.19851 6.36213C8.14252 7.28123 9.64689 7.28123 10.5915 6.36213Z" fill="#F75709"/>
<path d="M6.97573 7.02027L0.19746 0.552124C0.0729358 0.743061 0 0.970763 0 1.21566V10.7839C0 11.4557 0.544349 12.0001 1.21619 12.0001H16.573C17.2448 12.0001 17.7892 11.4557 17.7892 10.7839V1.21625C17.7892 0.971357 17.7162 0.743062 17.5917 0.552718L10.8134 7.02086C9.73958 8.04552 8.0496 8.04552 6.97573 7.02086V7.02027Z" fill="#F75709"/>
</svg>
