<svg width="22" height="22" viewBox="0 0 22 22" fill="none" xmlns="http://www.w3.org/2000/svg">
<g clip-path="url(#clip0_189_1837)">
<path d="M11.0887 19.9026L11.8766 18.8961C12.5115 18.0759 18.1188 10.7914 18.1188 7.16787C18.1188 2.81455 15.3261 0.000915527 11.0003 0.000915527C6.6745 0.000915527 3.88184 2.81455 3.88184 7.16787C3.88184 10.7966 9.48883 18.0811 10.1296 18.8961L10.9127 19.9026C7.63255 19.9112 4.98735 20.377 4.98735 20.9514C4.98735 21.531 7.68102 22.0009 11.0038 22.0009C14.3265 22.0009 17.0202 21.531 17.0202 20.9514C17.0202 20.3767 14.3719 19.9105 11.0887 19.9026ZM11.0003 9.40641C9.72705 9.40641 8.6951 8.40195 8.6951 7.16306C8.6951 5.92416 9.72705 4.91971 11.0003 4.91971C12.2736 4.91971 13.3055 5.92416 13.3055 7.16306C13.3055 8.40195 12.2736 9.40641 11.0003 9.40641Z" fill="#F75709"/>
</g>
<defs>
<clipPath id="clip0_189_1837">
<rect width="22" height="22" fill="white"/>
</clipPath>
</defs>
</svg>
