<svg width="17" height="17" viewBox="0 0 17 17" fill="none" xmlns="http://www.w3.org/2000/svg">
<g clip-path="url(#clip0_189_1819)">
<path d="M14.6474 11.832C13.6204 10.9536 12.5782 10.4216 11.5639 11.2986L10.9582 11.8287C10.515 12.2135 9.69103 14.0113 6.50532 10.3466C3.32026 6.68656 5.21564 6.11669 5.65946 5.73523L6.26848 5.20449C7.27753 4.32547 6.89673 3.21889 6.16896 2.07981L5.72978 1.38986C4.9987 0.253429 4.2026 -0.492912 3.1909 0.384785L2.64424 0.862444C2.1971 1.18818 0.947227 2.24699 0.644047 4.25846C0.279169 6.67197 1.43019 9.43575 4.06727 12.4682C6.70102 15.502 9.27971 17.0259 11.7224 16.9993C13.7525 16.9774 14.9784 15.8881 15.3619 15.4921L15.9105 15.0137C16.9196 14.1367 16.2927 13.2438 15.265 12.3634L14.6474 11.832Z" fill="#F75709"/>
</g>
<defs>
<clipPath id="clip0_189_1819">
<rect width="17" height="17" fill="white"/>
</clipPath>
</defs>
</svg>
