<svg width="190" height="34" viewBox="0 0 190 34" fill="none" xmlns="http://www.w3.org/2000/svg">
<path d="M38.3167 27.2435L32.262 3.15765H35.5241L38.3567 15.3443C39.0661 18.3708 39.7005 21.3469 40.1251 23.6722H40.1951C40.5847 21.2763 41.3291 18.4213 42.1434 15.3091L45.3306 3.15765H48.5478L51.4503 15.3796C52.1247 18.2397 52.7592 21.0997 53.1139 23.6369H53.1838C53.6834 20.9938 54.3528 18.3103 55.0971 15.3091L58.2444 3.15765H61.3967L54.6325 27.2435H51.4103L48.4129 14.7037C47.7505 12.1134 47.2302 9.48812 46.8543 6.83989H46.7843C46.3111 9.49245 45.6975 12.1175 44.9459 14.7037L41.5189 27.2435H38.3167Z" fill="#F18F33"/>
<path d="M64.8238 19.1728C64.8937 23.4251 67.5864 25.1754 70.6987 25.1754C72.3245 25.2294 73.9423 24.9247 75.4395 24.2826L75.9891 26.5373C74.1845 27.2941 72.2423 27.6585 70.289 27.6066C65.0136 27.6066 61.8663 24.106 61.8663 18.8904C61.8663 13.6747 64.9087 9.55865 69.8994 9.55865C75.4945 9.55865 76.9782 14.5271 76.9782 17.71C76.9728 18.1993 76.9377 18.6878 76.8733 19.1728H64.8238ZM73.9558 16.9231C73.9908 14.9055 73.1415 11.8134 69.6396 11.8134C66.4873 11.8134 65.1085 14.744 64.8587 16.9231H73.9558Z" fill="#F18F33"/>
<path d="M80.6799 27.2435C80.7499 26.0682 80.8198 24.3128 80.8198 22.7794V1.8764H83.8971V12.7415H83.9821C85.0761 10.8096 87.0594 9.55865 89.822 9.55865C94.0683 9.55865 97.0757 13.135 97.0407 18.3859C97.0407 24.5701 93.1841 27.642 89.3624 27.642C86.8645 27.642 84.9013 26.6785 83.6274 24.3935H83.5224L83.3776 27.2485L80.6799 27.2435ZM83.8971 20.3128C83.9087 20.6983 83.9572 21.0818 84.042 21.4578C84.3012 22.5099 84.9022 23.4438 85.7489 24.1104C86.5957 24.777 87.6393 25.1378 88.7129 25.135C91.9701 25.135 93.9134 22.4566 93.9134 18.4919C93.9134 15.0215 92.145 12.0555 88.8179 12.0555C87.7148 12.0763 86.65 12.4674 85.7916 13.167C84.9331 13.8667 84.3298 14.835 84.077 15.9193C83.9723 16.3405 83.912 16.7716 83.8971 17.2056V20.3128Z" fill="#F18F33"/>
<path d="M101.062 3.16272H104.145V24.6408H114.336V27.2435H101.062V3.16272Z" fill="#F6F6F6"/>
<path d="M132.67 18.4616C132.67 24.8576 128.279 27.642 124.137 27.642C119.501 27.642 115.929 24.212 115.929 18.7441C115.929 12.9584 119.681 9.55865 124.422 9.55865C129.343 9.55865 132.67 13.1703 132.67 18.4616ZM119.077 18.6381C119.077 22.4263 121.235 25.2863 124.282 25.2863C127.254 25.2863 129.483 22.4616 129.483 18.5675C129.483 15.6369 128.034 11.9193 124.352 11.9193C120.67 11.9193 119.077 15.3494 119.077 18.6381Z" fill="#F6F6F6"/>
<path d="M136.596 15.3494C136.596 13.3318 136.561 11.5613 136.457 9.95219H139.179L139.284 13.3469H139.434C140.213 11.0266 142.087 9.55876 144.175 9.55876C144.473 9.55639 144.77 9.59369 145.059 9.66972V12.6155C144.711 12.54 144.356 12.5044 144 12.5096C141.802 12.5096 140.248 14.1842 139.824 16.5449C139.733 17.029 139.684 17.5202 139.679 18.0128V27.2436H136.601L136.596 15.3494Z" fill="#F6F6F6"/>
<path d="M149.55 19.1728C149.62 23.4251 152.308 25.1754 155.425 25.1754C157.051 25.2289 158.669 24.9242 160.166 24.2826L160.701 26.5373C158.896 27.2935 156.954 27.6579 155 27.6067C149.725 27.6067 146.578 24.106 146.578 18.8904C146.578 13.6747 149.62 9.55865 154.611 9.55865C160.201 9.55865 161.69 14.5271 161.69 17.71C161.684 18.1993 161.649 18.6878 161.585 19.1728H149.55ZM158.682 16.9231C158.717 14.9055 157.868 11.8134 154.361 11.8134C151.214 11.8134 149.835 14.744 149.585 16.9231H158.682Z" fill="#F6F6F6"/>
<path d="M165.546 14.6331C165.546 12.8425 165.511 11.3797 165.406 9.94712H168.129L168.269 12.7365H168.379C168.892 11.7519 169.668 10.932 170.619 10.3695C171.57 9.80703 172.657 9.52441 173.759 9.55366C174.826 9.54323 175.869 9.87311 176.739 10.4963C177.609 11.1194 178.262 12.0041 178.605 13.024H178.675C179.15 12.1459 179.802 11.3779 180.588 10.7693C181.672 9.93156 183.011 9.50164 184.375 9.55366C186.638 9.55366 190 11.0669 190 17.0594V27.2435H186.958V17.4579C186.958 14.1338 185.754 12.1363 183.241 12.1363C182.411 12.1724 181.612 12.4659 180.954 12.9768C180.295 13.4876 179.808 14.191 179.559 14.9913C179.399 15.5003 179.316 16.031 179.314 16.5651V27.2435H176.272V16.8879C176.272 14.1337 175.068 12.1363 172.695 12.1363C170.747 12.1363 169.333 13.705 168.838 15.2788C168.662 15.7718 168.578 16.2933 168.589 16.8173V27.2435H165.546V14.6331Z" fill="#F6F6F6"/>
<path d="M5.38033 33.3268C8.3518 33.3268 10.7607 30.8945 10.7607 27.8942C10.7607 24.8939 8.3518 22.4617 5.38033 22.4617C2.40886 22.4617 0 24.8939 0 27.8942C0 30.8945 2.40886 33.3268 5.38033 33.3268Z" fill="url(#paint0_linear_84_334)"/>
<path d="M23.1649 18.1892C22.8601 18.1489 22.0558 18.0985 22.0359 18.0985C20.687 18.0026 19.7628 17.1754 19.8378 15.874C19.964 15.2575 20.148 14.6545 20.3873 14.0732L20.4273 13.9925C21.2841 12.0245 21.4884 9.82961 21.0099 7.73481C20.5313 5.64 19.3955 3.75729 17.7714 2.36704C16.1474 0.976794 14.1221 0.153374 11.9971 0.0193997C9.87209 -0.114574 7.76106 0.448066 5.97838 1.62353C4.19569 2.799 2.8367 4.52442 2.10378 6.54285C1.37086 8.56128 1.30322 10.7647 1.91093 12.8251C2.51864 14.8855 3.76918 16.6926 5.47635 17.9773C7.18351 19.262 9.25597 19.9555 11.3851 19.9547C11.9596 19.9547 12.9288 19.8337 13.1536 19.8337C13.4298 19.8195 13.706 19.8635 13.9646 19.9627C14.2231 20.0619 14.4585 20.2143 14.6557 20.4101C14.8529 20.6059 15.0077 20.841 15.1103 21.1003C15.2129 21.3597 15.2611 21.6378 15.2518 21.9169C15.2008 22.3687 15.0846 22.8105 14.9071 23.2284C14.4947 24.3159 14.3244 25.4817 14.4084 26.6431C14.4923 27.8045 14.8284 28.933 15.3928 29.9485C15.9572 30.964 16.7361 31.8417 17.6741 32.5191C18.6121 33.1966 19.6864 33.6572 20.8205 33.8684C21.9547 34.0796 23.121 34.0362 24.2367 33.7411C25.3523 33.4461 26.39 32.9067 27.276 32.1613C28.162 31.4158 28.8747 30.4826 29.3634 29.4278C29.8521 28.3731 30.1049 27.2226 30.1039 26.0582C30.0727 24.1247 29.355 22.2669 28.0815 20.8227C26.808 19.3785 25.0633 18.444 23.1649 18.1892Z" fill="#F6F6F6"/>
<defs>
<linearGradient id="paint0_linear_84_334" x1="8.10296" y1="23.1325" x2="2.59867" y2="32.5745" gradientUnits="userSpaceOnUse">
<stop stop-color="#F0B034"/>
<stop offset="0.38" stop-color="#F0A534"/>
<stop offset="0.67" stop-color="#F18F33"/>
<stop offset="0.89" stop-color="#E96032"/>
<stop offset="1" stop-color="#E4332E"/>
</linearGradient>
</defs>
</svg>
